<?xml version="1.0" encoding="utf-8"?>
<!-- Generator: Adobe Illustrator 19.2.1, SVG Export Plug-In . SVG Version: 6.00 Build 0)  -->
<svg version="1.1" id="Layer_1" xmlns="http://www.w3.org/2000/svg" xmlns:xlink="http://www.w3.org/1999/xlink" x="0px" y="0px"
	 viewBox="0 0 200 200" enable-background="new 0 0 200 200" xml:space="preserve">
<path id="cog" d="M194.3,106.6c-0.3,4.3-0.9,8.6-1.7,12.8l5.3,1.4l-3.1,11.5l-5.4-1.5c-1.4,4.1-3.1,8.1-5,11.9l4.8,2.8l-5.9,10.3
	l-4.9-2.8c-2.4,3.6-5.1,6.9-7.9,10.1l4,4l-8.4,8.4l-4-4c-3.2,2.8-6.7,5.4-10.3,7.7l2.8,4.9l-10.3,5.9l-2.9-5
	c-3.8,1.8-7.8,3.4-11.9,4.8l1.5,5.6l-11.5,3.1l-1.5-5.8c-4.1,0.8-8.4,1.3-12.7,1.5v6H93.4v-6.1c-4.3-0.3-8.5-1-12.6-1.8l-1.6,5.9
	l-11.5-3.1l1.6-6.1c-4-1.4-7.9-3.1-11.6-5l-3.2,5.5l-10.3-5.9l3.3-5.7c-3.5-2.4-6.8-5-9.9-7.8l-4.6,4.6l-8.4-8.4l4.8-4.8
	c-2.7-3.2-5.2-6.6-7.5-10.1l-5.8,3.4l-5.9-10.3l5.9-3.4c-1.8-3.8-3.4-7.6-4.7-11.7l-6.6,1.8l-3.1-11.5l6.8-1.8
	c-0.8-4.1-1.3-8.2-1.5-12.4H0V93.4h7.1C7.4,89.2,8,85,8.8,81l-6.8-1.8l3.1-11.5l6.9,1.8c1.4-4,3-7.8,4.9-11.5l-6.1-3.5l5.9-10.3
	l6.1,3.5c2.3-3.5,4.9-6.8,7.7-9.9L25.6,33l8.4-8.4l5,5c3.1-2.7,6.5-5.3,10-7.6l-3.4-6l10.3-5.9l3.5,6c3.7-1.8,7.6-3.5,11.6-4.8
	l-1.7-6.5l11.5-3.1l1.7,6.5c4.1-0.8,8.2-1.4,12.5-1.6V0h11.9v6.6c4.3,0.3,8.4,0.8,12.5,1.6l1.7-6.2l11.5,3.1l-1.7,6.2
	c4,1.4,8,3,11.7,4.9l3.1-5.4l10.3,5.9l-3.1,5.4c3.5,2.4,6.9,5,10.1,7.8l4.3-4.3l8.4,8.4l-4.3,4.3c2.8,3.2,5.4,6.6,7.8,10.1l5.1-2.9
	l5.9,10.3l-5.1,2.9c1.9,3.8,3.5,7.8,4.9,11.9l5.5-1.5l3.1,11.5l-5.5,1.5c0.8,4.2,1.4,8.4,1.6,12.8h5.6v11.9H194.3z M100,24.3
	c-10.1,0-18.2,8.2-18.2,18.2s8.2,18.2,18.2,18.2s18.2-8.2,18.2-18.2S110.1,24.3,100,24.3z M34.1,61.6c-5,8.7-2,19.9,6.7,24.9
	c8.7,5,19.9,2,24.9-6.7s2-19.9-6.7-24.9S39.2,52.9,34.1,61.6z M33.5,137.3c5,8.7,16.2,11.7,24.9,6.7s11.7-16.2,6.7-24.9
	s-16.2-11.7-24.9-6.7S28.5,128.6,33.5,137.3z M98.8,175.7c10.1,0,18.2-8.2,18.2-18.2c0-10.1-8.2-18.2-18.2-18.2s-18.2,8.2-18.2,18.2
	C80.6,167.6,88.7,175.7,98.8,175.7z M164.7,138.4c5-8.7,2-19.9-6.7-24.9c-8.7-5-19.9-2-24.9,6.7s-2,19.9,6.7,24.9
	S159.6,147.1,164.7,138.4z M165.3,62.7c-5-8.7-16.2-11.7-24.9-6.7s-11.7,16.2-6.7,24.9s16.2,11.7,24.9,6.7
	C167.3,82.5,170.3,71.4,165.3,62.7z"/>
</svg>
