<?xml version="1.0" encoding="utf-8"?>
<!-- Generator: Adobe Illustrator 22.0.1, SVG Export Plug-In . SVG Version: 6.00 Build 0)  -->
<svg version="1.1" id="Layer_1" xmlns="http://www.w3.org/2000/svg" xmlns:xlink="http://www.w3.org/1999/xlink" x="0px" y="0px"
	 viewBox="0 0 392.2 552.7" enable-background="new 0 0 392.2 552.7" xml:space="preserve">
<g transform="translate(20,108)">
	<g>
		<path fill="#FFFFFF" d="M358.9,233.4l8.8,0l4.4-7.6l-4.4-7.6l-8.8,0l-4.4,7.6L358.9,233.4z"/>
		<path fill="#FFFFFF" d="M358.9,251l8.8,0l4.4-7.6l-4.4-7.6l-8.8,0l-4.4,7.6L358.9,251z"/>
		<path fill="#FFFFFF" d="M358.9,268.6l8.8,0l4.4-7.6l-4.4-7.6l-8.8,0l-4.4,7.6L358.9,268.6z"/>
		<path fill="#FFFFFF" d="M344,207l8.8,0l4.4-7.6l-4.4-7.6l-8.8,0l-4.4,7.6L344,207z"/>
		<path fill="#FFFFFF" d="M344,224.6l8.8,0l4.4-7.6l-4.4-7.6l-8.8,0l-4.4,7.6L344,224.6z"/>
		<path fill="#FFFFFF" d="M344,242.2l8.8,0l4.4-7.6l-4.4-7.6l-8.8,0l-4.4,7.6L344,242.2z"/>
		<path fill="#FFFFFF" d="M343.9,259.8l8.8,0l4.4-7.6l-4.4-7.6l-8.8,0l-4.4,7.6L343.9,259.8z"/>
		<path fill="#FFFFFF" d="M343.9,277.4l8.8,0l4.4-7.6l-4.4-7.6l-8.8,0l-4.4,7.6L343.9,277.4z"/>
		<path fill="#FFFFFF" d="M343.9,295.1l8.8,0l4.4-7.6l-4.4-7.6l-8.8,0l-4.4,7.6L343.9,295.1z"/>
		<path fill="#FFFFFF" d="M329,198.1l8.8,0l4.4-7.6l-4.4-7.6l-8.8,0l-4.4,7.6L329,198.1z"/>
		<path fill="#FFFFFF" d="M329,215.8l8.8,0l4.4-7.6l-4.4-7.6l-8.8,0l-4.4,7.6L329,215.8z"/>
		<path fill="#FFFFFF" d="M329,233.4l8.8,0l4.4-7.6l-4.4-7.6l-8.8,0l-4.4,7.6L329,233.4z"/>
		<path fill="#FFFFFF" d="M329,251l8.8,0l4.4-7.6l-4.4-7.6l-8.8,0l-4.4,7.6L329,251z"/>
		<path fill="#FFFFFF" d="M329,268.6l8.8,0l4.4-7.6l-4.4-7.6l-8.8,0l-4.4,7.6L329,268.6z"/>
		<path fill="#FFFFFF" d="M329,286.2l8.8,0l4.4-7.6l-4.4-7.6l-8.8,0l-4.4,7.6L329,286.2z"/>
		<path fill="#FFFFFF" d="M328.9,303.8l8.8,0l4.4-7.6l-4.4-7.6l-8.8,0l-4.4,7.6L328.9,303.8z"/>
		<path fill="#FFFFFF" d="M328.9,321.5l8.8,0l4.4-7.6l-4.4-7.6l-8.8,0l-4.4,7.6L328.9,321.5z"/>
		<path fill="#FFFFFF" d="M314.1,189.3l8.8,0l4.4-7.6l-4.4-7.6l-8.8,0l-4.4,7.6L314.1,189.3z"/>
		<path fill="#FFFFFF" d="M314,206.9l8.8,0l4.4-7.6l-4.4-7.6l-8.8,0l-4.4,7.6L314,206.9z"/>
		<path fill="#FFFFFF" d="M314,224.6l8.8,0l4.4-7.6l-4.4-7.6l-8.8,0l-4.4,7.6L314,224.6z"/>
		<path fill="#FFFFFF" d="M314,242.2l8.8,0l4.4-7.6l-4.4-7.6l-8.8,0l-4.4,7.6L314,242.2z"/>
		<path fill="#FFFFFF" d="M314,259.8l8.8,0l4.4-7.6l-4.4-7.6l-8.8,0l-4.4,7.6L314,259.8z"/>
		<path fill="#FFFFFF" d="M314,277.4l8.8,0l4.4-7.6l-4.4-7.6l-8.8,0l-4.4,7.6L314,277.4z"/>
		<path fill="#FFFFFF" d="M314,295l8.8,0l4.4-7.6l-4.4-7.6l-8.8,0l-4.4,7.6L314,295z"/>
		<path fill="#FFFFFF" d="M314,312.6l8.8,0l4.4-7.6l-4.4-7.6l-8.8,0l-4.4,7.6L314,312.6z"/>
		<path fill="#FFFFFF" d="M313.9,330.3l8.8,0l4.4-7.6l-4.4-7.6l-8.8,0l-4.4,7.6L313.9,330.3z"/>
		<path fill="#FFFFFF" d="M299.1,198.1l8.8,0l4.4-7.6l-4.4-7.6l-8.8,0l-4.4,7.6L299.1,198.1z"/>
		<path fill="#FFFFFF" d="M299.1,215.7l8.8,0l4.4-7.6l-4.4-7.6l-8.8,0l-4.4,7.6L299.1,215.7z"/>
		<path fill="#FFFFFF" d="M299,233.4l8.8,0l4.4-7.6l-4.4-7.6l-8.8,0l-4.4,7.6L299,233.4z"/>
		<path fill="#FFFFFF" d="M299,251l8.8,0l4.4-7.6l-4.4-7.6l-8.8,0l-4.4,7.6L299,251z"/>
		<path fill="#FFFFFF" d="M299,268.6l8.8,0l4.4-7.6l-4.4-7.6l-8.8,0l-4.4,7.6L299,268.6z"/>
		<path fill="#FFFFFF" d="M299,286.2l8.8,0l4.4-7.6l-4.4-7.6l-8.8,0l-4.4,7.6L299,286.2z"/>
		<path fill="#FFFFFF" d="M284.1,224.5l8.8,0l4.4-7.6l-4.4-7.6l-8.8,0l-4.4,7.6L284.1,224.5z"/>
		<path fill="#FFFFFF" d="M284.1,242.1l8.8,0l4.4-7.6l-4.4-7.6l-8.8,0l-4.4,7.6L284.1,242.1z"/>
		<path fill="#FFFFFF" d="M284,259.8l8.8,0l4.4-7.6l-4.4-7.6l-8.8,0l-4.4,7.6L284,259.8z"/>
		<path fill="#FFFFFF" d="M284,277.4l8.8,0l4.4-7.6l-4.4-7.6l-8.8,0l-4.4,7.6L284,277.4z"/>
		<path fill="#FFFFFF" d="M269.1,250.9l8.8,0l4.4-7.6l-4.4-7.6l-8.8,0l-4.4,7.6L269.1,250.9z"/>
		<path fill="#FFFFFF" d="M269.1,268.6l8.8,0l4.4-7.6l-4.4-7.6l-8.8,0l-4.4,7.6L269.1,268.6z"/>
		<path fill="#FFFFFF" d="M269.1,286.2l8.8,0l4.4-7.6l-4.4-7.6l-8.8,0l-4.4,7.6L269.1,286.2z"/>
		<path fill="#FFFFFF" d="M254.1,259.7l8.8,0l4.4-7.6l-4.4-7.6l-8.8,0l-4.4,7.6L254.1,259.7z"/>
		<path fill="#FFFFFF" d="M254.1,277.4l8.8,0l4.4-7.6l-4.4-7.6l-8.8,0l-4.4,7.6L254.1,277.4z"/>
		<path fill="#FFFFFF" d="M239.1,268.5l8.8,0l4.4-7.6l-4.4-7.6l-8.8,0l-4.4,7.6L239.1,268.5z"/>
		<path fill="#FFFFFF" d="M239.1,286.2l8.8,0l4.4-7.6l-4.4-7.6l-8.8,0l-4.4,7.6L239.1,286.2z"/>
		<path fill="#FFFFFF" d="M224.1,277.3l8.8,0l4.4-7.6l-4.4-7.6l-8.8,0l-4.4,7.6L224.1,277.3z"/>
		<path fill="#FFFFFF" d="M224.1,294.9l8.8,0l4.4-7.6l-4.4-7.6l-8.8,0l-4.4,7.6L224.1,294.9z"/>
		<path fill="#FFFFFF" d="M209.2,286.1l8.8,0l4.4-7.6l-4.4-7.6l-8.8,0l-4.4,7.6L209.2,286.1z"/>
		<path fill="#FFFFFF" d="M209.1,303.7l8.8,0l4.4-7.6l-4.4-7.6l-8.8,0l-4.4,7.6L209.1,303.7z"/>
		<path fill="#FFFFFF" d="M313.9,347.9l8.8,0l4.4-7.6l-4.4-7.6l-8.8,0l-4.4,7.6L313.9,347.9z"/>
		<path fill="#FFFFFF" d="M299,303.8l8.8,0l4.4-7.6l-4.4-7.6l-8.8,0l-4.4,7.6L299,303.8z"/>
		<path fill="#FFFFFF" d="M299,321.4l8.8,0l4.4-7.6l-4.4-7.6l-8.8,0l-4.4,7.6L299,321.4z"/>
		<path fill="#FFFFFF" d="M299,339.1l8.8,0l4.4-7.6l-4.4-7.6l-8.8,0l-4.4,7.6L299,339.1z"/>
		<path fill="#FFFFFF" d="M298.9,356.7l8.8,0l4.4-7.6l-4.4-7.6l-8.8,0l-4.4,7.6L298.9,356.7z"/>
		<path fill="#FFFFFF" d="M298.9,374.3l8.8,0l4.4-7.6l-4.4-7.6l-8.8,0l-4.4,7.6L298.9,374.3z"/>
		<path fill="#FFFFFF" d="M284,295l8.8,0l4.4-7.6l-4.4-7.6l-8.8,0l-4.4,7.6L284,295z"/>
		<path fill="#FFFFFF" d="M284,312.6l8.8,0l4.4-7.6l-4.4-7.6l-8.8,0l-4.4,7.6L284,312.6z"/>
		<path fill="#FFFFFF" d="M284,330.2l8.8,0l4.4-7.6l-4.4-7.6l-8.8,0l-4.4,7.6L284,330.2z"/>
		<path fill="#FFFFFF" d="M284,347.9l8.8,0l4.4-7.6l-4.4-7.6l-8.8,0l-4.4,7.6L284,347.9z"/>
		<path fill="#FFFFFF" d="M284,365.5l8.8,0l4.4-7.6l-4.4-7.6l-8.8,0l-4.4,7.6L284,365.5z"/>
		<path fill="#FFFFFF" d="M269,303.8l8.8,0l4.4-7.6l-4.4-7.6l-8.8,0l-4.4,7.6L269,303.8z"/>
		<path fill="#FFFFFF" d="M269,321.4l8.8,0l4.4-7.6l-4.4-7.6l-8.8,0l-4.4,7.6L269,321.4z"/>
		<path fill="#FFFFFF" d="M269,339l8.8,0l4.4-7.6l-4.4-7.6l-8.8,0l-4.4,7.6L269,339z"/>
		<path fill="#FFFFFF" d="M269,356.6l8.8,0l4.4-7.6l-4.4-7.6l-8.8,0l-4.4,7.6L269,356.6z"/>
		<path fill="#FFFFFF" d="M269,374.3l8.8,0l4.4-7.6l-4.4-7.6l-8.8,0l-4.4,7.6L269,374.3z"/>
		<path fill="#FFFFFF" d="M254.1,295l8.8,0l4.4-7.6l-4.4-7.6l-8.8,0l-4.4,7.6L254.1,295z"/>
		<path fill="#FFFFFF" d="M254.1,312.6l8.8,0l4.4-7.6l-4.4-7.6l-8.8,0l-4.4,7.6L254.1,312.6z"/>
		<path fill="#FFFFFF" d="M254,330.2l8.8,0l4.4-7.6l-4.4-7.6l-8.8,0l-4.4,7.6L254,330.2z"/>
		<path fill="#FFFFFF" d="M254,347.8l8.8,0l4.4-7.6l-4.4-7.6l-8.8,0l-4.4,7.6L254,347.8z"/>
		<path fill="#FFFFFF" d="M254,365.4l8.8,0l4.4-7.6l-4.4-7.6l-8.8,0l-4.4,7.6L254,365.4z"/>
		<path fill="#FFFFFF" d="M239.1,303.8l8.8,0l4.4-7.6l-4.4-7.6l-8.8,0l-4.4,7.6L239.1,303.8z"/>
		<path fill="#FFFFFF" d="M239.1,321.4l8.8,0l4.4-7.6l-4.4-7.6l-8.8,0l-4.4,7.6L239.1,321.4z"/>
		<path fill="#FFFFFF" d="M239.1,339l8.8,0l4.4-7.6l-4.4-7.6l-8.8,0l-4.4,7.6L239.1,339z"/>
		<path fill="#FFFFFF" d="M239,356.6l8.8,0l4.4-7.6l-4.4-7.6l-8.8,0l-4.4,7.6L239,356.6z"/>
		<path fill="#FFFFFF" d="M239,374.2l8.8,0l4.4-7.6l-4.4-7.6l-8.8,0l-4.4,7.6L239,374.2z"/>
		<path fill="#FFFFFF" d="M224.1,312.6l8.8,0l4.4-7.6l-4.4-7.6l-8.8,0l-4.4,7.6L224.1,312.6z"/>
		<path fill="#FFFFFF" d="M224.1,330.2l8.8,0l4.4-7.6l-4.4-7.6l-8.8,0l-4.4,7.6L224.1,330.2z"/>
		<path fill="#FFFFFF" d="M224.1,347.8l8.8,0l4.4-7.6l-4.4-7.6l-8.8,0l-4.4,7.6L224.1,347.8z"/>
		<path fill="#FFFFFF" d="M224.1,365.4l8.8,0l4.4-7.6l-4.4-7.6l-8.8,0l-4.4,7.6L224.1,365.4z"/>
		<path fill="#FFFFFF" d="M209.1,321.4l8.8,0l4.4-7.6l-4.4-7.6l-8.8,0l-4.4,7.6L209.1,321.4z"/>
		<path fill="#FFFFFF" d="M209.1,339l8.8,0l4.4-7.6l-4.4-7.6l-8.8,0l-4.4,7.6L209.1,339z"/>
		<path fill="#FFFFFF" d="M209.1,356.6l8.8,0l4.4-7.6l-4.4-7.6l-8.8,0l-4.4,7.6L209.1,356.6z"/>
		<path fill="#FFFFFF" d="M254.2,154l8.8,0l4.4-7.6l-4.4-7.6l-8.8,0l-4.4,7.6L254.2,154z"/>
		<path fill="#FFFFFF" d="M254.2,171.7l8.8,0l4.4-7.6l-4.4-7.6l-8.8,0l-4.4,7.6L254.2,171.7z"/>
		<path fill="#FFFFFF" d="M239.2,127.6l8.8,0l4.4-7.6l-4.4-7.6l-8.8,0l-4.4,7.6L239.2,127.6z"/>
		<path fill="#FFFFFF" d="M239.2,145.2l8.8,0l4.4-7.6L248,130l-8.8,0l-4.4,7.6L239.2,145.2z"/>
		<path fill="#FFFFFF" d="M239.2,162.8l8.8,0l4.4-7.6l-4.4-7.6l-8.8,0l-4.4,7.6L239.2,162.8z"/>
		<path fill="#FFFFFF" d="M224.3,118.8l8.8,0l4.4-7.6l-4.4-7.6l-8.8,0l-4.4,7.6L224.3,118.8z"/>
		<path fill="#FFFFFF" d="M224.3,136.4l8.8,0l4.4-7.6l-4.4-7.6l-8.8,0l-4.4,7.6L224.3,136.4z"/>
		<path fill="#FFFFFF" d="M224.2,154l8.8,0l4.4-7.6l-4.4-7.6l-8.8,0l-4.4,7.6L224.2,154z"/>
		<path fill="#FFFFFF" d="M224.2,171.6l8.8,0l4.4-7.6l-4.4-7.6l-8.8,0l-4.4,7.6L224.2,171.6z"/>
		<path fill="#FFFFFF" d="M209.3,110l8.8,0l4.4-7.6l-4.4-7.6l-8.8,0l-4.4,7.6L209.3,110z"/>
		<path fill="#FFFFFF" d="M209.3,127.6l8.8,0l4.4-7.6l-4.4-7.6l-8.8,0l-4.4,7.6L209.3,127.6z"/>
		<path fill="#FFFFFF" d="M209.3,145.2l8.8,0l4.4-7.6l-4.4-7.6l-8.8,0l-4.4,7.6L209.3,145.2z"/>
		<path fill="#FFFFFF" d="M209.3,162.8l8.8,0l4.4-7.6l-4.4-7.6l-8.8,0l-4.4,7.6L209.3,162.8z"/>
		<path fill="#FFFFFF" d="M194.3,118.7l8.8,0l4.4-7.6l-4.4-7.6l-8.8,0l-4.4,7.6L194.3,118.7z"/>
		<path fill="#FFFFFF" d="M194.3,136.4l8.8,0l4.4-7.6l-4.4-7.6l-8.8,0l-4.4,7.6L194.3,136.4z"/>
		<path fill="#FFFFFF" d="M194.3,154l8.8,0l4.4-7.6l-4.4-7.6l-8.8,0l-4.4,7.6L194.3,154z"/>
		<path fill="#FFFFFF" d="M194.3,171.6l8.8,0l4.4-7.6l-4.4-7.6l-8.8,0l-4.4,7.6L194.3,171.6z"/>
		<path fill="#FFFFFF" d="M179.4,109.9l8.8,0l4.4-7.6l-4.4-7.6l-8.8,0l-4.4,7.6L179.4,109.9z"/>
		<path fill="#FFFFFF" d="M179.3,127.5l8.8,0l4.4-7.6l-4.4-7.6l-8.8,0l-4.4,7.6L179.3,127.5z"/>
		<path fill="#FFFFFF" d="M179.3,145.2l8.8,0l4.4-7.6l-4.4-7.6l-8.8,0l-4.4,7.6L179.3,145.2z"/>
		<path fill="#FFFFFF" d="M164.4,101.1l8.8,0l4.4-7.6l-4.4-7.6l-8.8,0l-4.4,7.6L164.4,101.1z"/>
		<path fill="#FFFFFF" d="M284.1,206.9l8.8,0l4.4-7.6l-4.4-7.6l-8.8,0l-4.4,7.6L284.1,206.9z"/>
		<path fill="#FFFFFF" d="M269.1,180.5l8.8,0l4.4-7.6l-4.4-7.6l-8.8,0l-4.4,7.6L269.1,180.5z"/>
		<path fill="#FFFFFF" d="M269.1,198.1l8.8,0l4.4-7.6l-4.4-7.6l-8.8,0l-4.4,7.6L269.1,198.1z"/>
		<path fill="#FFFFFF" d="M269.1,215.7l8.8,0l4.4-7.6l-4.4-7.6l-8.8,0l-4.4,7.6L269.1,215.7z"/>
		<path fill="#FFFFFF" d="M269.1,233.3l8.8,0l4.4-7.6l-4.4-7.6l-8.8,0l-4.4,7.6L269.1,233.3z"/>
		<path fill="#FFFFFF" d="M254.2,189.3l8.8,0l4.4-7.6L263,174l-8.8,0l-4.4,7.6L254.2,189.3z"/>
		<path fill="#FFFFFF" d="M254.1,206.9l8.8,0l4.4-7.6l-4.4-7.6l-8.8,0l-4.4,7.6L254.1,206.9z"/>
		<path fill="#FFFFFF" d="M254.1,224.5l8.8,0l4.4-7.6l-4.4-7.6l-8.8,0l-4.4,7.6L254.1,224.5z"/>
		<path fill="#FFFFFF" d="M254.1,242.1l8.8,0l4.4-7.6l-4.4-7.6l-8.8,0l-4.4,7.6L254.1,242.1z"/>
		<path fill="#FFFFFF" d="M239.2,180.4l8.8,0l4.4-7.6l-4.4-7.6l-8.8,0l-4.4,7.6L239.2,180.4z"/>
		<path fill="#FFFFFF" d="M239.2,198.1l8.8,0l4.4-7.6l-4.4-7.6l-8.8,0l-4.4,7.6L239.2,198.1z"/>
		<path fill="#FFFFFF" d="M239.2,215.7l8.8,0l4.4-7.6l-4.4-7.6l-8.8,0l-4.4,7.6L239.2,215.7z"/>
		<path fill="#FFFFFF" d="M239.1,233.3l8.8,0l4.4-7.6L248,218l-8.8,0l-4.4,7.6L239.1,233.3z"/>
		<path fill="#FFFFFF" d="M239.1,250.9l8.8,0l4.4-7.6l-4.4-7.6l-8.8,0l-4.4,7.6L239.1,250.9z"/>
		<path fill="#FFFFFF" d="M224.2,189.2l8.8,0l4.4-7.6L233,174l-8.8,0l-4.4,7.6L224.2,189.2z"/>
		<path fill="#FFFFFF" d="M224.2,206.9l8.8,0l4.4-7.6l-4.4-7.6l-8.8,0l-4.4,7.6L224.2,206.9z"/>
		<path fill="#FFFFFF" d="M224.2,224.5l8.8,0l4.4-7.6l-4.4-7.6l-8.8,0l-4.4,7.6L224.2,224.5z"/>
		<path fill="#FFFFFF" d="M224.2,242.1l8.8,0l4.4-7.6l-4.4-7.6l-8.8,0l-4.4,7.6L224.2,242.1z"/>
		<path fill="#FFFFFF" d="M224.2,259.7l8.8,0l4.4-7.6l-4.4-7.6l-8.8,0l-4.4,7.6L224.2,259.7z"/>
		<path fill="#FFFFFF" d="M209.2,180.4l8.8,0l4.4-7.6l-4.4-7.6l-8.8,0l-4.4,7.6L209.2,180.4z"/>
		<path fill="#FFFFFF" d="M209.2,198l8.8,0l4.4-7.6l-4.4-7.6l-8.8,0l-4.4,7.6L209.2,198z"/>
		<path fill="#FFFFFF" d="M209.2,215.7l8.8,0l4.4-7.6l-4.4-7.6l-8.8,0l-4.4,7.6L209.2,215.7z"/>
		<path fill="#FFFFFF" d="M209.2,233.3l8.8,0l4.4-7.6L218,218l-8.8,0l-4.4,7.6L209.2,233.3z"/>
		<path fill="#FFFFFF" d="M209.2,250.9l8.8,0l4.4-7.6l-4.4-7.6l-8.8,0l-4.4,7.6L209.2,250.9z"/>
		<path fill="#FFFFFF" d="M209.2,268.5l8.8,0l4.4-7.6l-4.4-7.6l-8.8,0l-4.4,7.6L209.2,268.5z"/>
		<path fill="#FFFFFF" d="M194.3,189.2l8.8,0l4.4-7.6l-4.4-7.6l-8.8,0l-4.4,7.6L194.3,189.2z"/>
		<path fill="#FFFFFF" d="M194.2,206.8l8.8,0l4.4-7.6l-4.4-7.6l-8.8,0l-4.4,7.6L194.2,206.8z"/>
		<path fill="#FFFFFF" d="M194.2,224.5l8.8,0l4.4-7.6l-4.4-7.6l-8.8,0l-4.4,7.6L194.2,224.5z"/>
		<path fill="#FFFFFF" d="M194.2,242.1l8.8,0l4.4-7.6l-4.4-7.6l-8.8,0l-4.4,7.6L194.2,242.1z"/>
		<path fill="#FFFFFF" d="M194.2,259.7l8.8,0l4.4-7.6l-4.4-7.6l-8.8,0l-4.4,7.6L194.2,259.7z"/>
		<path fill="#FFFFFF" d="M194.2,277.3l8.8,0l4.4-7.6l-4.4-7.6l-8.8,0l-4.4,7.6L194.2,277.3z"/>
		<path fill="#FFFFFF" d="M179.3,162.8l8.8,0l4.4-7.6l-4.4-7.6l-8.8,0l-4.4,7.6L179.3,162.8z"/>
		<path fill="#FFFFFF" d="M179.3,180.4l8.8,0l4.4-7.6l-4.4-7.6l-8.8,0l-4.4,7.6L179.3,180.4z"/>
		<path fill="#FFFFFF" d="M179.3,198l8.8,0l4.4-7.6l-4.4-7.6l-8.8,0l-4.4,7.6L179.3,198z"/>
		<path fill="#FFFFFF" d="M179.3,215.6l8.8,0l4.4-7.6l-4.4-7.6l-8.8,0l-4.4,7.6L179.3,215.6z"/>
		<path fill="#FFFFFF" d="M179.2,233.2l8.8,0l4.4-7.6l-4.4-7.6l-8.8,0l-4.4,7.6L179.2,233.2z"/>
		<path fill="#FFFFFF" d="M179.2,268.5l8.8,0l4.4-7.6l-4.4-7.6l-8.8,0l-4.4,7.6L179.2,268.5z"/>
		<path fill="#FFFFFF" d="M179.2,286.1l8.8,0l4.4-7.6l-4.4-7.6l-8.8,0l-4.4,7.6L179.2,286.1z"/>
		<path fill="#FFFFFF" d="M164.3,189.2l8.8,0l4.4-7.6l-4.4-7.6l-8.8,0l-4.4,7.6L164.3,189.2z"/>
		<path fill="#FFFFFF" d="M164.3,206.8l8.8,0l4.4-7.6l-4.4-7.6l-8.8,0l-4.4,7.6L164.3,206.8z"/>
		<path fill="#FFFFFF" d="M209.3,92.3l8.8,0l4.4-7.6l-4.4-7.6l-8.8,0l-4.4,7.6L209.3,92.3z"/>
		<path fill="#FFFFFF" d="M194.4,83.5l8.8,0l4.4-7.6l-4.4-7.6l-8.8,0l-4.4,7.6L194.4,83.5z"/>
		<path fill="#FFFFFF" d="M194.3,101.1l8.8,0l4.4-7.6l-4.4-7.6l-8.8,0l-4.4,7.6L194.3,101.1z"/>
		<path fill="#FFFFFF" d="M179.4,74.7l8.8,0l4.4-7.6l-4.4-7.6l-8.8,0l-4.4,7.6L179.4,74.7z"/>
		<path fill="#FFFFFF" d="M179.4,92.3l8.8,0l4.4-7.6l-4.4-7.6l-8.8,0l-4.4,7.6L179.4,92.3z"/>
		<path fill="#FFFFFF" d="M164.4,65.9l8.8,0l4.4-7.6l-4.4-7.6l-8.8,0l-4.4,7.6L164.4,65.9z"/>
		<path fill="#FFFFFF" d="M164.4,83.5l8.8,0l4.4-7.6l-4.4-7.6l-8.8,0l-4.4,7.6L164.4,83.5z"/>
		<path fill="#FFFFFF" d="M149.5,57l8.8,0l4.4-7.6l-4.4-7.6l-8.8,0l-4.4,7.6L149.5,57z"/>
		<path fill="#FFFFFF" d="M149.4,74.7l8.8,0l4.4-7.6l-4.4-7.6l-8.8,0L145,67L149.4,74.7z"/>
		<path fill="#FFFFFF" d="M149.4,92.3l8.8,0l4.4-7.6l-4.4-7.6l-8.8,0l-4.4,7.6L149.4,92.3z"/>
		<path fill="#FFFFFF" d="M134.5,48.2l8.8,0l4.4-7.6l-4.4-7.6l-8.8,0l-4.4,7.6L134.5,48.2z"/>
		<path fill="#FFFFFF" d="M134.5,65.8l8.8,0l4.4-7.6l-4.4-7.6l-8.8,0l-4.4,7.6L134.5,65.8z"/>
		<path fill="#FFFFFF" d="M358.8,392l8.8,0l4.4-7.6l-4.4-7.6l-8.8,0l-4.4,7.6L358.8,392z"/>
		<path fill="#FFFFFF" d="M343.9,347.9l8.8,0l4.4-7.6l-4.4-7.6l-8.8,0l-4.4,7.6L343.9,347.9z"/>
		<path fill="#FFFFFF" d="M343.9,365.5l8.8,0l4.4-7.6l-4.4-7.6l-8.8,0l-4.4,7.6L343.9,365.5z"/>
		<path fill="#FFFFFF" d="M343.8,383.1l8.8,0l4.4-7.6l-4.4-7.6l-8.8,0l-4.4,7.6L343.8,383.1z"/>
		<path fill="#FFFFFF" d="M343.8,400.8l8.8,0l4.4-7.6l-4.4-7.6l-8.8,0l-4.4,7.6L343.8,400.8z"/>
		<path fill="#FFFFFF" d="M343.8,418.4l8.8,0l4.4-7.6l-4.4-7.6l-8.8,0l-4.4,7.6L343.8,418.4z"/>
		<path fill="#FFFFFF" d="M328.9,356.7l8.8,0l4.4-7.6l-4.4-7.6l-8.8,0l-4.4,7.6L328.9,356.7z"/>
		<path fill="#FFFFFF" d="M328.9,374.3l8.8,0l4.4-7.6l-4.4-7.6l-8.8,0l-4.4,7.6L328.9,374.3z"/>
		<path fill="#FFFFFF" d="M328.9,391.9l8.8,0l4.4-7.6l-4.4-7.6l-8.8,0l-4.4,7.6L328.9,391.9z"/>
		<path fill="#FFFFFF" d="M328.8,409.6l8.8,0l4.4-7.6l-4.4-7.6l-8.8,0l-4.4,7.6L328.8,409.6z"/>
		<path fill="#FFFFFF" d="M313.9,365.5l8.8,0l4.4-7.6l-4.4-7.6l-8.8,0l-4.4,7.6L313.9,365.5z"/>
		<path fill="#FFFFFF" d="M313.9,383.1l8.8,0l4.4-7.6l-4.4-7.6l-8.8,0l-4.4,7.6L313.9,383.1z"/>
		<path fill="#FFFFFF" d="M313.9,400.7l8.8,0l4.4-7.6l-4.4-7.6l-8.8,0l-4.4,7.6L313.9,400.7z"/>
		<path fill="#FFFFFF" d="M313.9,418.3l8.8,0l4.4-7.6l-4.4-7.6l-8.8,0l-4.4,7.6L313.9,418.3z"/>
		<path fill="#FFFFFF" d="M298.9,391.9l8.8,0l4.4-7.6l-4.4-7.6l-8.8,0l-4.4,7.6L298.9,391.9z"/>
		<path fill="#FFFFFF" d="M298.9,409.5l8.8,0l4.4-7.6l-4.4-7.6l-8.8,0l-4.4,7.6L298.9,409.5z"/>
		<path fill="#FFFFFF" d="M298.9,427.1l8.8,0l4.4-7.6l-4.4-7.6l-8.8,0l-4.4,7.6L298.9,427.1z"/>
		<path fill="#FFFFFF" d="M283.9,383.1l8.8,0l4.4-7.6l-4.4-7.6l-8.8,0l-4.4,7.6L283.9,383.1z"/>
		<path fill="#FFFFFF" d="M283.9,400.7l8.8,0l4.4-7.6l-4.4-7.6l-8.8,0l-4.4,7.6L283.9,400.7z"/>
		<path fill="#FFFFFF" d="M283.9,418.3l8.8,0l4.4-7.6l-4.4-7.6l-8.8,0l-4.4,7.6L283.9,418.3z"/>
		<path fill="#FFFFFF" d="M269,391.9l8.8,0l4.4-7.6l-4.4-7.6l-8.8,0l-4.4,7.6L269,391.9z"/>
		<path fill="#FFFFFF" d="M268.9,409.5l8.8,0l4.4-7.6l-4.4-7.6l-8.8,0l-4.4,7.6L268.9,409.5z"/>
		<path fill="#FFFFFF" d="M268.9,427.1l8.8,0l4.4-7.6l-4.4-7.6l-8.8,0l-4.4,7.6L268.9,427.1z"/>
		<path fill="#FFFFFF" d="M254,383.1l8.8,0l4.4-7.6l-4.4-7.6l-8.8,0l-4.4,7.6L254,383.1z"/>
		<path fill="#FFFFFF" d="M254,400.7l8.8,0l4.4-7.6l-4.4-7.6l-8.8,0l-4.4,7.6L254,400.7z"/>
		<path fill="#FFFFFF" d="M254,418.3l8.8,0l4.4-7.6l-4.4-7.6l-8.8,0l-4.4,7.6L254,418.3z"/>
		<path fill="#FFFFFF" d="M239,391.9l8.8,0l4.4-7.6l-4.4-7.6l-8.8,0l-4.4,7.6L239,391.9z"/>
		<path fill="#FFFFFF" d="M239,409.5l8.8,0l4.4-7.6l-4.4-7.6l-8.8,0l-4.4,7.6L239,409.5z"/>
		<path fill="#FFFFFF" d="M239,427.1l8.8,0l4.4-7.6l-4.4-7.6l-8.8,0l-4.4,7.6L239,427.1z"/>
		<path fill="#FFFFFF" d="M224,383l8.8,0l4.4-7.6l-4.4-7.6l-8.8,0l-4.4,7.6L224,383z"/>
		<path fill="#FFFFFF" d="M224,400.7l8.8,0l4.4-7.6l-4.4-7.6l-8.8,0l-4.4,7.6L224,400.7z"/>
		<path fill="#FFFFFF" d="M224,418.3l8.8,0l4.4-7.6l-4.4-7.6l-8.8,0l-4.4,7.6L224,418.3z"/>
		<path fill="#FFFFFF" d="M209.1,374.2l8.8,0l4.4-7.6l-4.4-7.6l-8.8,0l-4.4,7.6L209.1,374.2z"/>
		<path fill="#FFFFFF" d="M209.1,391.8l8.8,0l4.4-7.6l-4.4-7.6l-8.8,0l-4.4,7.6L209.1,391.8z"/>
		<path fill="#FFFFFF" d="M209,409.4l8.8,0l4.4-7.6l-4.4-7.6l-8.8,0l-4.4,7.6L209,409.4z"/>
		<path fill="#FFFFFF" d="M209,427.1l8.8,0l4.4-7.6l-4.4-7.6l-8.8,0l-4.4,7.6L209,427.1z"/>
		<path fill="#FFFFFF" d="M194.2,294.9l8.8,0l4.4-7.6l-4.4-7.6l-8.8,0l-4.4,7.6L194.2,294.9z"/>
		<path fill="#FFFFFF" d="M194.2,312.5l8.8,0l4.4-7.6l-4.4-7.6l-8.8,0l-4.4,7.6L194.2,312.5z"/>
		<path fill="#FFFFFF" d="M194.1,330.2l8.8,0l4.4-7.6l-4.4-7.6l-8.8,0l-4.4,7.6L194.1,330.2z"/>
		<path fill="#FFFFFF" d="M194.1,347.8l8.8,0l4.4-7.6l-4.4-7.6l-8.8,0l-4.4,7.6L194.1,347.8z"/>
		<path fill="#FFFFFF" d="M194.1,365.4l8.8,0l4.4-7.6l-4.4-7.6l-8.8,0l-4.4,7.6L194.1,365.4z"/>
		<path fill="#FFFFFF" d="M194.1,383l8.8,0l4.4-7.6l-4.4-7.6l-8.8,0l-4.4,7.6L194.1,383z"/>
		<path fill="#FFFFFF" d="M194.1,400.6l8.8,0l4.4-7.6l-4.4-7.6l-8.8,0l-4.4,7.6L194.1,400.6z"/>
		<path fill="#FFFFFF" d="M194.1,418.2l8.8,0l4.4-7.6l-4.4-7.6l-8.8,0l-4.4,7.6L194.1,418.2z"/>
		<path fill="#FFFFFF" d="M179.2,303.7l8.8,0l4.4-7.6l-4.4-7.6l-8.8,0l-4.4,7.6L179.2,303.7z"/>
		<path fill="#FFFFFF" d="M179.2,321.3l8.8,0l4.4-7.6l-4.4-7.6l-8.8,0l-4.4,7.6L179.2,321.3z"/>
		<path fill="#FFFFFF" d="M179.2,339l8.8,0l4.4-7.6l-4.4-7.6l-8.8,0l-4.4,7.6L179.2,339z"/>
		<path fill="#FFFFFF" d="M179.1,356.6l8.8,0l4.4-7.6l-4.4-7.6l-8.8,0l-4.4,7.6L179.1,356.6z"/>
		<path fill="#FFFFFF" d="M179.1,374.2l8.8,0l4.4-7.6l-4.4-7.6l-8.8,0l-4.4,7.6L179.1,374.2z"/>
		<path fill="#FFFFFF" d="M179.1,391.8l8.8,0l4.4-7.6l-4.4-7.6l-8.8,0l-4.4,7.6L179.1,391.8z"/>
		<path fill="#FFFFFF" d="M179.1,409.4l8.8,0l4.4-7.6l-4.4-7.6l-8.8,0l-4.4,7.6L179.1,409.4z"/>
		<path fill="#FFFFFF" d="M179.1,444.7l8.8,0l4.4-7.6l-4.4-7.6l-8.8,0l-4.4,7.6L179.1,444.7z"/>
		<path fill="#FFFFFF" d="M164.2,294.9l8.8,0l4.4-7.6l-4.4-7.6l-8.8,0l-4.4,7.6L164.2,294.9z"/>
		<path fill="#FFFFFF" d="M164.2,312.5l8.8,0l4.4-7.6l-4.4-7.6l-8.8,0l-4.4,7.6L164.2,312.5z"/>
		<path fill="#FFFFFF" d="M164.2,330.1l8.8,0l4.4-7.6l-4.4-7.6l-8.8,0l-4.4,7.6L164.2,330.1z"/>
		<path fill="#FFFFFF" d="M164.2,347.7l8.8,0l4.4-7.6l-4.4-7.6l-8.8,0l-4.4,7.6L164.2,347.7z"/>
		<path fill="#FFFFFF" d="M164.2,365.4l8.8,0l4.4-7.6l-4.4-7.6l-8.8,0l-4.4,7.6L164.2,365.4z"/>
		<path fill="#FFFFFF" d="M164.1,383l8.8,0l4.4-7.6l-4.4-7.6l-8.8,0l-4.4,7.6L164.1,383z"/>
		<path fill="#FFFFFF" d="M164.1,400.6l8.8,0l4.4-7.6l-4.4-7.6l-8.8,0l-4.4,7.6L164.1,400.6z"/>
		<path fill="#FFFFFF" d="M164.1,418.2l8.8,0l4.4-7.6l-4.4-7.6l-8.8,0l-4.4,7.6L164.1,418.2z"/>
		<path fill="#FFFFFF" d="M149.2,303.7l8.8,0l4.4-7.6l-4.4-7.6l-8.8,0l-4.4,7.6L149.2,303.7z"/>
		<path fill="#FFFFFF" d="M149.2,321.3l8.8,0l4.4-7.6l-4.4-7.6l-8.8,0l-4.4,7.6L149.2,321.3z"/>
		<path fill="#FFFFFF" d="M149.2,338.9l8.8,0l4.4-7.6l-4.4-7.6l-8.8,0l-4.4,7.6L149.2,338.9z"/>
		<path fill="#FFFFFF" d="M149.2,356.5l8.8,0l4.4-7.6l-4.4-7.6l-8.8,0l-4.4,7.6L149.2,356.5z"/>
		<path fill="#FFFFFF" d="M149.2,374.2l8.8,0l4.4-7.6l-4.4-7.6l-8.8,0l-4.4,7.6L149.2,374.2z"/>
		<path fill="#FFFFFF" d="M149.2,391.8l8.8,0l4.4-7.6l-4.4-7.6l-8.8,0l-4.4,7.6L149.2,391.8z"/>
		<path fill="#FFFFFF" d="M134.2,383l8.8,0l4.4-7.6l-4.4-7.6l-8.8,0l-4.4,7.6L134.2,383z"/>
		<path fill="#FFFFFF" d="M119.2,374.1l8.8,0l4.4-7.6l-4.4-7.6l-8.8,0l-4.4,7.6L119.2,374.1z"/>
		<path fill="#FFFFFF" d="M164.4,118.7l8.8,0l4.4-7.6l-4.4-7.6l-8.8,0l-4.4,7.6L164.4,118.7z"/>
		<path fill="#FFFFFF" d="M164.4,136.3l8.8,0l4.4-7.6l-4.4-7.6l-8.8,0l-4.4,7.6L164.4,136.3z"/>
		<path fill="#FFFFFF" d="M164.3,154l8.8,0l4.4-7.6l-4.4-7.6l-8.8,0l-4.4,7.6L164.3,154z"/>
		<path fill="#FFFFFF" d="M164.3,171.6l8.8,0l4.4-7.6l-4.4-7.6l-8.8,0l-4.4,7.6L164.3,171.6z"/>
		<path fill="#FFFFFF" d="M149.4,109.9l8.8,0l4.4-7.6l-4.4-7.6l-8.8,0l-4.4,7.6L149.4,109.9z"/>
		<path fill="#FFFFFF" d="M149.4,127.5l8.8,0l4.4-7.6l-4.4-7.6l-8.8,0l-4.4,7.6L149.4,127.5z"/>
		<path fill="#FFFFFF" d="M149.4,145.1l8.8,0l4.4-7.6l-4.4-7.6l-8.8,0l-4.4,7.6L149.4,145.1z"/>
		<path fill="#FFFFFF" d="M149.4,162.8l8.8,0l4.4-7.6l-4.4-7.6l-8.8,0l-4.4,7.6L149.4,162.8z"/>
		<path fill="#FFFFFF" d="M149.3,180.4l8.8,0l4.4-7.6l-4.4-7.6l-8.8,0l-4.4,7.6L149.3,180.4z"/>
		<path fill="#FFFFFF" d="M134.5,83.5l8.8,0l4.4-7.6l-4.4-7.6l-8.8,0l-4.4,7.6L134.5,83.5z"/>
		<path fill="#FFFFFF" d="M134.4,101.1l8.8,0l4.4-7.6l-4.4-7.6l-8.8,0l-4.4,7.6L134.4,101.1z"/>
		<path fill="#FFFFFF" d="M134.4,118.7l8.8,0l4.4-7.6l-4.4-7.6l-8.8,0l-4.4,7.6L134.4,118.7z"/>
		<path fill="#FFFFFF" d="M134.4,136.3l8.8,0l4.4-7.6l-4.4-7.6l-8.8,0l-4.4,7.6L134.4,136.3z"/>
		<path fill="#FFFFFF" d="M134.4,153.9l8.8,0l4.4-7.6l-4.4-7.6l-8.8,0l-4.4,7.6L134.4,153.9z"/>
		<path fill="#FFFFFF" d="M134.4,171.5l8.8,0l4.4-7.6l-4.4-7.6l-8.8,0l-4.4,7.6L134.4,171.5z"/>
		<path fill="#FFFFFF" d="M134.4,189.2l8.8,0l4.4-7.6l-4.4-7.6l-8.8,0l-4.4,7.6L134.4,189.2z"/>
		<path fill="#FFFFFF" d="M119.5,57l8.8,0l4.4-7.6l-4.4-7.6l-8.8,0l-4.4,7.6L119.5,57z"/>
		<path fill="#FFFFFF" d="M119.5,74.6l8.8,0l4.4-7.6l-4.4-7.6l-8.8,0l-4.4,7.6L119.5,74.6z"/>
		<path fill="#FFFFFF" d="M119.5,92.3l8.8,0l4.4-7.6l-4.4-7.6l-8.8,0l-4.4,7.6L119.5,92.3z"/>
		<path fill="#FFFFFF" d="M119.5,109.9l8.8,0l4.4-7.6l-4.4-7.6l-8.8,0l-4.4,7.6L119.5,109.9z"/>
		<path fill="#FFFFFF" d="M119.4,127.5l8.8,0l4.4-7.6l-4.4-7.6l-8.8,0l-4.4,7.6L119.4,127.5z"/>
		<path fill="#FFFFFF" d="M119.4,145.1l8.8,0l4.4-7.6l-4.4-7.6l-8.8,0l-4.4,7.6L119.4,145.1z"/>
		<path fill="#FFFFFF" d="M119.4,162.7l8.8,0l4.4-7.6l-4.4-7.6l-8.8,0l-4.4,7.6L119.4,162.7z"/>
		<path fill="#FFFFFF" d="M119.4,180.3l8.8,0l4.4-7.6l-4.4-7.6l-8.8,0l-4.4,7.6L119.4,180.3z"/>
		<path fill="#FFFFFF" d="M119.4,198l8.8,0l4.4-7.6l-4.4-7.6l-8.8,0l-4.4,7.6L119.4,198z"/>
		<path fill="#FFFFFF" d="M104.5,65.8l8.8,0l4.4-7.6l-4.4-7.6l-8.8,0l-4.4,7.6L104.5,65.8z"/>
		<path fill="#FFFFFF" d="M104.5,83.4l8.8,0l4.4-7.6l-4.4-7.6l-8.8,0l-4.4,7.6L104.5,83.4z"/>
		<path fill="#FFFFFF" d="M104.5,118.7l8.8,0l4.4-7.6l-4.4-7.6l-8.8,0l-4.4,7.6L104.5,118.7z"/>
		<path fill="#FFFFFF" d="M104.5,136.3l8.8,0l4.4-7.6l-4.4-7.6l-8.8,0l-4.4,7.6L104.5,136.3z"/>
		<path fill="#FFFFFF" d="M104.4,153.9l8.8,0l4.4-7.6l-4.4-7.6l-8.8,0l-4.4,7.6L104.4,153.9z"/>
		<path fill="#FFFFFF" d="M104.4,171.5l8.8,0l4.4-7.6l-4.4-7.6l-8.8,0l-4.4,7.6L104.4,171.5z"/>
		<path fill="#FFFFFF" d="M104.4,189.1l8.8,0l4.4-7.6l-4.4-7.6l-8.8,0l-4.4,7.6L104.4,189.1z"/>
		<path fill="#FFFFFF" d="M104.4,206.8l8.8,0l4.4-7.6l-4.4-7.6l-8.8,0l-4.4,7.6L104.4,206.8z"/>
		<path fill="#FFFFFF" d="M89.5,74.6l8.8,0l4.4-7.6l-4.4-7.6l-8.8,0L85.1,67L89.5,74.6z"/>
		<path fill="#FFFFFF" d="M89.5,92.2l8.8,0l4.4-7.6L98.3,77l-8.8,0l-4.4,7.6L89.5,92.2z"/>
		<path fill="#FFFFFF" d="M89.5,162.7l8.8,0l4.4-7.6l-4.4-7.6l-8.8,0l-4.4,7.6L89.5,162.7z"/>
		<path fill="#FFFFFF" d="M89.4,180.3l8.8,0l4.4-7.6l-4.4-7.6l-8.8,0l-4.4,7.6L89.4,180.3z"/>
		<path fill="#FFFFFF" d="M89.4,197.9l8.8,0l4.4-7.6l-4.4-7.6l-8.8,0l-4.4,7.6L89.4,197.9z"/>
		<path fill="#FFFFFF" d="M89.4,215.5l8.8,0l4.4-7.6l-4.4-7.6l-8.8,0l-4.4,7.6L89.4,215.5z"/>
		<path fill="#FFFFFF" d="M179.2,250.9l8.8,0l4.4-7.6l-4.4-7.6l-8.8,0l-4.4,7.6L179.2,250.9z"/>
		<path fill="#FFFFFF" d="M164.3,224.4l8.8,0l4.4-7.6l-4.4-7.6l-8.8,0l-4.4,7.6L164.3,224.4z"/>
		<path fill="#FFFFFF" d="M164.3,242l8.8,0l4.4-7.6l-4.4-7.6l-8.8,0l-4.4,7.6L164.3,242z"/>
		<path fill="#FFFFFF" d="M164.3,259.7l8.8,0l4.4-7.6l-4.4-7.6l-8.8,0l-4.4,7.6L164.3,259.7z"/>
		<path fill="#FFFFFF" d="M164.2,277.3l8.8,0l4.4-7.6l-4.4-7.6l-8.8,0l-4.4,7.6L164.2,277.3z"/>
		<path fill="#FFFFFF" d="M149.3,198l8.8,0l4.4-7.6l-4.4-7.6l-8.8,0l-4.4,7.6L149.3,198z"/>
		<path fill="#FFFFFF" d="M149.3,215.6l8.8,0l4.4-7.6l-4.4-7.6l-8.8,0l-4.4,7.6L149.3,215.6z"/>
		<path fill="#FFFFFF" d="M149.3,233.2l8.8,0l4.4-7.6l-4.4-7.6l-8.8,0l-4.4,7.6L149.3,233.2z"/>
		<path fill="#FFFFFF" d="M149.3,250.8l8.8,0l4.4-7.6l-4.4-7.6l-8.8,0l-4.4,7.6L149.3,250.8z"/>
		<path fill="#FFFFFF" d="M149.3,268.5l8.8,0l4.4-7.6l-4.4-7.6l-8.8,0l-4.4,7.6L149.3,268.5z"/>
		<path fill="#FFFFFF" d="M149.3,286.1l8.8,0l4.4-7.6l-4.4-7.6l-8.8,0l-4.4,7.6L149.3,286.1z"/>
		<path fill="#FFFFFF" d="M134.3,206.8l8.8,0l4.4-7.6l-4.4-7.6l-8.8,0l-4.4,7.6L134.3,206.8z"/>
		<path fill="#FFFFFF" d="M134.3,224.4l8.8,0l4.4-7.6l-4.4-7.6l-8.8,0l-4.4,7.6L134.3,224.4z"/>
		<path fill="#FFFFFF" d="M134.3,242l8.8,0l4.4-7.6l-4.4-7.6l-8.8,0l-4.4,7.6L134.3,242z"/>
		<path fill="#FFFFFF" d="M134.3,259.6l8.8,0l4.4-7.6l-4.4-7.6l-8.8,0l-4.4,7.6L134.3,259.6z"/>
		<path fill="#FFFFFF" d="M134.3,277.3l8.8,0l4.4-7.6l-4.4-7.6l-8.8,0l-4.4,7.6L134.3,277.3z"/>
		<path fill="#FFFFFF" d="M134.3,294.9l8.8,0l4.4-7.6l-4.4-7.6l-8.8,0l-4.4,7.6L134.3,294.9z"/>
		<path fill="#FFFFFF" d="M119.4,215.6l8.8,0l4.4-7.6l-4.4-7.6l-8.8,0l-4.4,7.6L119.4,215.6z"/>
		<path fill="#FFFFFF" d="M119.4,233.2l8.8,0l4.4-7.6l-4.4-7.6l-8.8,0l-4.4,7.6L119.4,233.2z"/>
		<path fill="#FFFFFF" d="M119.3,250.8l8.8,0l4.4-7.6l-4.4-7.6l-8.8,0l-4.4,7.6L119.3,250.8z"/>
		<path fill="#FFFFFF" d="M119.3,268.4l8.8,0l4.4-7.6l-4.4-7.6l-8.8,0l-4.4,7.6L119.3,268.4z"/>
		<path fill="#FFFFFF" d="M119.3,286l8.8,0l4.4-7.6l-4.4-7.6l-8.8,0l-4.4,7.6L119.3,286z"/>
		<path fill="#FFFFFF" d="M104.4,224.4l8.8,0l4.4-7.6l-4.4-7.6l-8.8,0l-4.4,7.6L104.4,224.4z"/>
		<path fill="#FFFFFF" d="M104.4,242l8.8,0l4.4-7.6l-4.4-7.6l-8.8,0l-4.4,7.6L104.4,242z"/>
		<path fill="#FFFFFF" d="M104.4,259.6l8.8,0l4.4-7.6l-4.4-7.6l-8.8,0L100,252L104.4,259.6z"/>
		<path fill="#FFFFFF" d="M104.3,277.2l8.8,0l4.4-7.6l-4.4-7.6l-8.8,0l-4.4,7.6L104.3,277.2z"/>
		<path fill="#FFFFFF" d="M104.3,294.8l8.8,0l4.4-7.6l-4.4-7.6l-8.8,0l-4.4,7.6L104.3,294.8z"/>
		<path fill="#FFFFFF" d="M89.4,233.2l8.8,0l4.4-7.6l-4.4-7.6l-8.8,0l-4.4,7.6L89.4,233.2z"/>
		<path fill="#FFFFFF" d="M89.4,250.8l8.8,0l4.4-7.6l-4.4-7.6l-8.8,0l-4.4,7.6L89.4,250.8z"/>
		<path fill="#FFFFFF" d="M89.4,268.4l8.8,0l4.4-7.6l-4.4-7.6l-8.8,0l-4.4,7.6L89.4,268.4z"/>
		<path fill="#FFFFFF" d="M119.6-31.1l8.8,0l4.4-7.6l-4.4-7.6l-8.8,0l-4.4,7.6L119.6-31.1z"/>
		<path fill="#FFFFFF" d="M119.5,21.8l8.8,0l4.4-7.6l-4.4-7.6l-8.8,0l-4.4,7.6L119.5,21.8z"/>
		<path fill="#FFFFFF" d="M119.5,39.4l8.8,0l4.4-7.6l-4.4-7.6l-8.8,0l-4.4,7.6L119.5,39.4z"/>
		<path fill="#FFFFFF" d="M104.7-92.7l8.8,0l4.4-7.6l-4.4-7.6l-8.8,0l-4.4,7.6L104.7-92.7z"/>
		<path fill="#FFFFFF" d="M104.6-57.5l8.8,0l4.4-7.6l-4.4-7.6l-8.8,0l-4.4,7.6L104.6-57.5z"/>
		<path fill="#FFFFFF" d="M104.6-39.9l8.8,0l4.4-7.6l-4.4-7.6l-8.8,0l-4.4,7.6L104.6-39.9z"/>
		<path fill="#FFFFFF" d="M104.6-22.3l8.8,0l4.4-7.6l-4.4-7.6l-8.8,0l-4.4,7.6L104.6-22.3z"/>
		<path fill="#FFFFFF" d="M104.6-4.7l8.8,0l4.4-7.6l-4.4-7.6l-8.8,0l-4.4,7.6L104.6-4.7z"/>
		<path fill="#FFFFFF" d="M104.6,13l8.8,0l4.4-7.6l-4.4-7.6l-8.8,0l-4.4,7.6L104.6,13z"/>
		<path fill="#FFFFFF" d="M104.6,30.6l8.8,0l4.4-7.6l-4.4-7.6l-8.8,0l-4.4,7.6L104.6,30.6z"/>
		<path fill="#FFFFFF" d="M104.5,48.2l8.8,0l4.4-7.6l-4.4-7.6l-8.8,0l-4.4,7.6L104.5,48.2z"/>
		<path fill="#FFFFFF" d="M89.7-66.3l8.8,0l4.4-7.6l-4.4-7.6l-8.8,0L85.3-74L89.7-66.3z"/>
		<path fill="#FFFFFF" d="M89.6-48.7l8.8,0l4.4-7.6L98.5-64l-8.8,0l-4.4,7.6L89.6-48.7z"/>
		<path fill="#FFFFFF" d="M89.6-31.1l8.8,0l4.4-7.6l-4.4-7.6l-8.8,0l-4.4,7.6L89.6-31.1z"/>
		<path fill="#FFFFFF" d="M89.6-13.5l8.8,0l4.4-7.6l-4.4-7.6l-8.8,0l-4.4,7.6L89.6-13.5z"/>
		<path fill="#FFFFFF" d="M89.6,4.1l8.8,0l4.4-7.6l-4.4-7.6l-8.8,0l-4.4,7.6L89.6,4.1z"/>
		<path fill="#FFFFFF" d="M89.6,21.8l8.8,0l4.4-7.6l-4.4-7.6l-8.8,0l-4.4,7.6L89.6,21.8z"/>
		<path fill="#FFFFFF" d="M89.6,39.4l8.8,0l4.4-7.6l-4.4-7.6l-8.8,0l-4.4,7.6L89.6,39.4z"/>
		<path fill="#FFFFFF" d="M89.6,57l8.8,0l4.4-7.6l-4.4-7.6l-8.8,0l-4.4,7.6L89.6,57z"/>
		<path fill="#FFFFFF" d="M74.7-57.5l8.8,0l4.4-7.6l-4.4-7.6l-8.8,0l-4.4,7.6L74.7-57.5z"/>
		<path fill="#FFFFFF" d="M74.7-39.9l8.8,0l4.4-7.6l-4.4-7.6l-8.8,0l-4.4,7.6L74.7-39.9z"/>
		<path fill="#FFFFFF" d="M74.7-22.3l8.8,0l4.4-7.6l-4.4-7.6l-8.8,0l-4.4,7.6L74.7-22.3z"/>
		<path fill="#FFFFFF" d="M74.6-4.7l8.8,0l4.4-7.6l-4.4-7.6l-8.8,0l-4.4,7.6L74.6-4.7z"/>
		<path fill="#FFFFFF" d="M74.6,12.9l8.8,0l4.4-7.6l-4.4-7.6l-8.8,0l-4.4,7.6L74.6,12.9z"/>
		<path fill="#FFFFFF" d="M74.6,30.6l8.8,0l4.4-7.6l-4.4-7.6l-8.8,0l-4.4,7.6L74.6,30.6z"/>
		<path fill="#FFFFFF" d="M74.6,48.2l8.8,0l4.4-7.6l-4.4-7.6l-8.8,0l-4.4,7.6L74.6,48.2z"/>
		<path fill="#FFFFFF" d="M74.6,65.8l8.8,0l4.4-7.6l-4.4-7.6l-8.8,0l-4.4,7.6L74.6,65.8z"/>
		<path fill="#FFFFFF" d="M59.7-31.1l8.8,0l4.4-7.6l-4.4-7.6l-8.8,0l-4.4,7.6L59.7-31.1z"/>
		<path fill="#FFFFFF" d="M59.7-13.5l8.8,0l4.4-7.6l-4.4-7.6l-8.8,0l-4.4,7.6L59.7-13.5z"/>
		<path fill="#FFFFFF" d="M59.7,4.1l8.8,0l4.4-7.6l-4.4-7.6l-8.8,0l-4.4,7.6L59.7,4.1z"/>
		<path fill="#FFFFFF" d="M59.6,21.7l8.8,0l4.4-7.6l-4.4-7.6l-8.8,0l-4.4,7.6L59.6,21.7z"/>
		<path fill="#FFFFFF" d="M44.7-57.6l8.8,0l4.4-7.6l-4.4-7.6l-8.8,0l-4.4,7.6L44.7-57.6z"/>
		<path fill="#FFFFFF" d="M104.3,312.5l8.8,0l4.4-7.6l-4.4-7.6l-8.8,0l-4.4,7.6L104.3,312.5z"/>
		<path fill="#FFFFFF" d="M89.4,286l8.8,0l4.4-7.6l-4.4-7.6l-8.8,0l-4.4,7.6L89.4,286z"/>
		<path fill="#FFFFFF" d="M89.3,303.6l8.8,0l4.4-7.6l-4.4-7.6l-8.8,0l-4.4,7.6L89.3,303.6z"/>
		<path fill="#FFFFFF" d="M89.3,321.3l8.8,0l4.4-7.6l-4.4-7.6l-8.8,0l-4.4,7.6L89.3,321.3z"/>
		<path fill="#FFFFFF" d="M74.4,206.7l8.8,0l4.4-7.6l-4.4-7.6l-8.8,0l-4.4,7.6L74.4,206.7z"/>
		<path fill="#FFFFFF" d="M74.4,224.3l8.8,0l4.4-7.6l-4.4-7.6l-8.8,0l-4.4,7.6L74.4,224.3z"/>
		<path fill="#FFFFFF" d="M74.4,242l8.8,0l4.4-7.6l-4.4-7.6l-8.8,0l-4.4,7.6L74.4,242z"/>
		<path fill="#FFFFFF" d="M74.4,259.6l8.8,0l4.4-7.6l-4.4-7.6l-8.8,0l-4.4,7.6L74.4,259.6z"/>
		<path fill="#FFFFFF" d="M74.4,277.2l8.8,0l4.4-7.6l-4.4-7.6l-8.8,0l-4.4,7.6L74.4,277.2z"/>
		<path fill="#FFFFFF" d="M74.4,294.8l8.8,0l4.4-7.6l-4.4-7.6l-8.8,0l-4.4,7.6L74.4,294.8z"/>
		<path fill="#FFFFFF" d="M74.4,312.4l8.8,0l4.4-7.6l-4.4-7.6l-8.8,0l-4.4,7.6L74.4,312.4z"/>
		<path fill="#FFFFFF" d="M74.3,330l8.8,0l4.4-7.6l-4.4-7.6l-8.8,0l-4.4,7.6L74.3,330z"/>
		<path fill="#FFFFFF" d="M59.5,197.9l8.8,0l4.4-7.6l-4.4-7.6l-8.8,0l-4.4,7.6L59.5,197.9z"/>
		<path fill="#FFFFFF" d="M59.5,215.5l8.8,0l4.4-7.6l-4.4-7.6l-8.8,0l-4.4,7.6L59.5,215.5z"/>
		<path fill="#FFFFFF" d="M59.4,268.4l8.8,0l4.4-7.6l-4.4-7.6l-8.8,0l-4.4,7.6L59.4,268.4z"/>
		<path fill="#FFFFFF" d="M59.4,286l8.8,0l4.4-7.6l-4.4-7.6l-8.8,0l-4.4,7.6L59.4,286z"/>
		<path fill="#FFFFFF" d="M59.4,303.6l8.8,0l4.4-7.6l-4.4-7.6l-8.8,0L55,296L59.4,303.6z"/>
		<path fill="#FFFFFF" d="M59.4,321.2l8.8,0l4.4-7.6l-4.4-7.6l-8.8,0l-4.4,7.6L59.4,321.2z"/>
		<path fill="#FFFFFF" d="M44.5,189.1l8.8,0l4.4-7.6l-4.4-7.6l-8.8,0l-4.4,7.6L44.5,189.1z"/>
		<path fill="#FFFFFF" d="M44.4,277.2l8.8,0l4.4-7.6l-4.4-7.6l-8.8,0l-4.4,7.6L44.4,277.2z"/>
		<path fill="#FFFFFF" d="M44.4,294.8l8.8,0l4.4-7.6l-4.4-7.6l-8.8,0l-4.4,7.6L44.4,294.8z"/>
		<path fill="#FFFFFF" d="M29.5,286l8.8,0l4.4-7.6l-4.4-7.6l-8.8,0l-4.4,7.6L29.5,286z"/>
		<path fill="#FFFFFF" d="M149.1,409.4l8.8,0l4.4-7.6l-4.4-7.6l-8.8,0l-4.4,7.6L149.1,409.4z"/>
		<path fill="#FFFFFF" d="M134.3,312.5l8.8,0l4.4-7.6l-4.4-7.6l-8.8,0l-4.4,7.6L134.3,312.5z"/>
		<path fill="#FFFFFF" d="M134.2,330.1l8.8,0l4.4-7.6l-4.4-7.6l-8.8,0l-4.4,7.6L134.2,330.1z"/>
		<path fill="#FFFFFF" d="M134.2,347.7l8.8,0l4.4-7.6l-4.4-7.6l-8.8,0l-4.4,7.6L134.2,347.7z"/>
		<path fill="#FFFFFF" d="M134.2,365.3l8.8,0l4.4-7.6l-4.4-7.6l-8.8,0l-4.4,7.6L134.2,365.3z"/>
		<path fill="#FFFFFF" d="M134.2,400.6l8.8,0l4.4-7.6l-4.4-7.6l-8.8,0l-4.4,7.6L134.2,400.6z"/>
		<path fill="#FFFFFF" d="M134.2,418.2l8.8,0l4.4-7.6l-4.4-7.6l-8.8,0l-4.4,7.6L134.2,418.2z"/>
		<path fill="#FFFFFF" d="M119.3,303.7l8.8,0l4.4-7.6l-4.4-7.6l-8.8,0l-4.4,7.6L119.3,303.7z"/>
		<path fill="#FFFFFF" d="M119.3,321.3l8.8,0l4.4-7.6l-4.4-7.6l-8.8,0l-4.4,7.6L119.3,321.3z"/>
		<path fill="#FFFFFF" d="M119.3,338.9l8.8,0l4.4-7.6l-4.4-7.6l-8.8,0l-4.4,7.6L119.3,338.9z"/>
		<path fill="#FFFFFF" d="M119.2,356.5l8.8,0l4.4-7.6l-4.4-7.6l-8.8,0l-4.4,7.6L119.2,356.5z"/>
		<path fill="#FFFFFF" d="M119.2,391.8l8.8,0l4.4-7.6l-4.4-7.6l-8.8,0l-4.4,7.6L119.2,391.8z"/>
		<path fill="#FFFFFF" d="M119.2,409.4l8.8,0l4.4-7.6l-4.4-7.6l-8.8,0l-4.4,7.6L119.2,409.4z"/>
		<path fill="#FFFFFF" d="M104.3,347.7l8.8,0l4.4-7.6l-4.4-7.6l-8.8,0l-4.4,7.6L104.3,347.7z"/>
		<path fill="#FFFFFF" d="M104.3,365.3l8.8,0l4.4-7.6l-4.4-7.6l-8.8,0l-4.4,7.6L104.3,365.3z"/>
		<path fill="#FFFFFF" d="M104.2,382.9l8.8,0l4.4-7.6l-4.4-7.6l-8.8,0l-4.4,7.6L104.2,382.9z"/>
		<path fill="#FFFFFF" d="M104.2,400.5l8.8,0l4.4-7.6l-4.4-7.6l-8.8,0l-4.4,7.6L104.2,400.5z"/>
		<path fill="#FFFFFF" d="M89.3,356.5l8.8,0l4.4-7.6l-4.4-7.6l-8.8,0l-4.4,7.6L89.3,356.5z"/>
		<path fill="#FFFFFF" d="M89.3,374.1l8.8,0l4.4-7.6l-4.4-7.6l-8.8,0l-4.4,7.6L89.3,374.1z"/>
		<path fill="#FFFFFF" d="M89.3,391.7l8.8,0l4.4-7.6l-4.4-7.6l-8.8,0l-4.4,7.6L89.3,391.7z"/>
		<path fill="#FFFFFF" d="M89.2,409.3l8.8,0l4.4-7.6l-4.4-7.6l-8.8,0l-4.4,7.6L89.2,409.3z"/>
		<path fill="#FFFFFF" d="M74.3,365.3l8.8,0l4.4-7.6l-4.4-7.6l-8.8,0l-4.4,7.6L74.3,365.3z"/>
		<path fill="#FFFFFF" d="M74.3,382.9l8.8,0l4.4-7.6l-4.4-7.6l-8.8,0l-4.4,7.6L74.3,382.9z"/>
		<path fill="#FFFFFF" d="M74.3,400.5l8.8,0l4.4-7.6l-4.4-7.6l-8.8,0l-4.4,7.6L74.3,400.5z"/>
		<path fill="#FFFFFF" d="M74.3,418.1l8.8,0l4.4-7.6l-4.4-7.6l-8.8,0l-4.4,7.6L74.3,418.1z"/>
		<path fill="#FFFFFF" d="M59.3,374.1l8.8,0l4.4-7.6l-4.4-7.6l-8.8,0l-4.4,7.6L59.3,374.1z"/>
		<path fill="#FFFFFF" d="M59.3,391.7l8.8,0l4.4-7.6l-4.4-7.6l-8.8,0l-4.4,7.6L59.3,391.7z"/>
		<path fill="#FFFFFF" d="M59.3,409.3l8.8,0l4.4-7.6l-4.4-7.6l-8.8,0l-4.4,7.6L59.3,409.3z"/>
		<path fill="#FFFFFF" d="M44.3,382.9l8.8,0l4.4-7.6l-4.4-7.6l-8.8,0l-4.4,7.6L44.3,382.9z"/>
		<path fill="#FFFFFF" d="M44.3,400.5l8.8,0l4.4-7.6l-4.4-7.6l-8.8,0l-4.4,7.6L44.3,400.5z"/>
		<path fill="#FFFFFF" d="M44.3,418.1l8.8,0l4.4-7.6l-4.4-7.6l-8.8,0l-4.4,7.6L44.3,418.1z"/>
		<path fill="#FFFFFF" d="M29.4,391.7l8.8,0l4.4-7.6l-4.4-7.6l-8.8,0L25,384L29.4,391.7z"/>
		<path fill="#FFFFFF" d="M29.3,409.3l8.8,0l4.4-7.6l-4.4-7.6l-8.8,0l-4.4,7.6L29.3,409.3z"/>
		<path fill="#FFFFFF" d="M14.4,400.5l8.8,0l4.4-7.6l-4.4-7.6l-8.8,0l-4.4,7.6L14.4,400.5z"/>
		<path fill="#FFFFFF" d="M14.4,418.1l8.8,0l4.4-7.6l-4.4-7.6l-8.8,0l-4.4,7.6L14.4,418.1z"/>
		<path fill="#FFFFFF" d="M-15.6,435.7l8.8,0l4.4-7.6l-4.4-7.6l-8.8,0L-20,428L-15.6,435.7z"/>
	</g>
</g>
</svg>
