<svg xmlns="http://www.w3.org/2000/svg" viewBox="0 0 296.8 237.6">
  <title>US</title>
  <g id="abbreviation">
    <text transform="translate(118.7 96)" font-size="12" fill="#231f20" font-family="Metric-Regular, Metric">IA</text>
    <text transform="translate(11.3 74.5)" font-size="12" fill="#231f20" font-family="Metric-Regular, Metric">OR</text>
    <text transform="translate(32.8 96)" font-size="12" fill="#231f20" font-family="Metric-Regular, Metric">NV</text>
    <text transform="translate(54 111.9)" font-size="12" fill="#231f20" font-family="Metric-Regular, Metric">UT</text>
    <text transform="translate(48.9 74.5)" font-size="12" fill="#231f20" font-family="Metric-Regular, Metric">ID</text>
    <text transform="translate(70.4 85.2)" font-size="12" fill="#231f20" font-family="Metric-Regular, Metric">WY</text>
    <text transform="translate(65 58.4)" font-size="12" fill="#231f20" font-family="Metric-Regular, Metric">MT</text>
    <text transform="translate(43.5 202.7)" font-size="12" fill="#231f20" font-family="Metric-Regular, Metric">HI</text>
    <text transform="translate(16.6 52.5)" font-size="12" fill="#231f20" font-family="Metric-Regular, Metric">WA</text>
    <text transform="translate(97.2 117.5)" font-size="12" fill="#231f20" font-family="Metric-Regular, Metric">KS</text>
    <text transform="translate(75.5 111.9)" font-size="12" fill="#231f20" font-family="Metric-Regular, Metric">CO</text>
    <text transform="translate(97.2 96)" font-size="12" fill="#231f20" font-family="Metric-Regular, Metric">NE</text>
    <text transform="translate(64.5 154.9)" font-size="12" fill="#231f20" font-family="Metric-Regular, Metric">NM</text>
    <text transform="translate(97.2 74.5)" font-size="12" fill="#231f20" font-family="Metric-Regular, Metric">SD</text>
    <text transform="translate(97.2 58.4)" font-size="12" fill="#231f20" font-family="Metric-Regular, Metric">ND</text>
    <text transform="translate(5.9 153.7)" font-size="12" fill="#231f20" font-family="Metric-Regular, Metric">CA</text>
    <text transform="translate(97.2 214)" font-size="12" fill="#231f20" font-family="Metric-Regular, Metric">TX</text>
    <text transform="translate(140.2 96)" font-size="12" fill="#231f20" font-family="Metric-Regular, Metric">Ill</text>
    <text transform="translate(145.5 197.3)" font-size="12" fill="#231f20" font-family="Metric-Regular, Metric">MS</text>
    <text transform="translate(238.5 183.5)" font-size="12" fill="#231f20" font-family="Metric-Regular, Metric">SC</text>
    <text transform="translate(167.1 171.5)" font-size="12" fill="#231f20" font-family="Metric-Regular, Metric">AL</text>
    <text transform="translate(149.8 149.5)" font-size="12" fill="#231f20" font-family="Metric-Regular, Metric">KT</text>
    <text transform="translate(145.6 169.5)" font-size="12" fill="#231f20" font-family="Metric-Regular, Metric">TN</text>
    <text transform="translate(167.1 96)" font-size="12" fill="#231f20" font-family="Metric-Regular, Metric">IN</text>
    <text transform="translate(187.9 89.9)" font-size="12" fill="#231f20" font-family="Metric-Regular, Metric">OH</text>
    <text transform="translate(223.4 231.7)" font-size="12" fill="#231f20" font-family="Metric-Regular, Metric">FL</text>
    <text transform="translate(188.6 165.8)" font-size="12" fill="#231f20" font-family="Metric-Regular, Metric">GA</text>
    <text transform="translate(237.2 15.4)" font-size="12" fill="#231f20" font-family="Metric-Regular, Metric">VT</text>
    <text transform="translate(281 49.1)" font-size="12" fill="#231f20" font-family="Metric-Regular, Metric">MA</text>
    <text transform="translate(210.2 79.6)" font-size="12" fill="#231f20" font-family="Metric-Regular, Metric">PA</text>
    <text transform="translate(259.5 157)" font-size="12" fill="#231f20" font-family="Metric-Regular, Metric">NC</text>
    <text transform="translate(199.4 154.3)" font-size="12" fill="#231f20" font-family="Metric-Regular, Metric">VA</text>
    <text transform="translate(193.7 138.4)" font-size="12" fill="#231f20" font-family="Metric-Regular, Metric">WV</text>
    <text transform="translate(215.7 106.6)" font-size="12" fill="#231f20" font-family="Metric-Regular, Metric">MD</text>
    <text transform="translate(270.4 87.5)" font-size="12" fill="#231f20" font-family="Metric-Regular, Metric">NJ</text>
    <text transform="translate(254 124.2)" font-size="12" fill="#231f20" font-family="Metric-Regular, Metric">DE</text>
    <text transform="translate(241.4 143.8)" font-size="12" fill="#231f20" font-family="Metric-Regular, Metric">DC</text>
    <text transform="translate(264.9 33)" font-size="12" fill="#231f20" font-family="Metric-Regular, Metric">NH</text>
    <text transform="translate(263.7 9.7)" font-size="12" fill="#231f20" font-family="Metric-Regular, Metric">ME</text>
    <text transform="translate(268.3 73.1)" font-size="12" fill="#231f20" font-family="Metric-Regular, Metric">RI</text>
    <text transform="translate(242.3 53.1)" font-size="12" fill="#231f20" font-family="Metric-Regular, Metric">CT</text>
    <text transform="translate(210.1 43.5)" font-size="12" fill="#231f20" font-family="Metric-Regular, Metric">NY</text>
    <text transform="translate(118.7 117.4)" font-size="12" fill="#231f20" font-family="Metric-Regular, Metric">MO</text>
    <text transform="translate(43.5 144.2)" font-size="12" fill="#231f20" font-family="Metric-Regular, Metric">AZ</text>
    <text transform="translate(11.2 187.2)" font-size="12" fill="#231f20" font-family="Metric-Regular, Metric">AK</text>
    <text transform="translate(91.8 138.9)" font-size="12" fill="#231f20" font-family="Metric-Regular, Metric">OK</text>
    <text transform="translate(118.7 144.2)" font-size="12" fill="#231f20" font-family="Metric-Regular, Metric">AR</text>
    <text transform="translate(124.1 171.1)" font-size="12" fill="#231f20" font-family="Metric-Regular, Metric">LA</text>
    <text transform="translate(118.3 58)" font-size="12" fill="#231f20" font-family="Metric-Regular, Metric">MN</text>
    <text transform="translate(140.2 63.7)" font-size="12" fill="#231f20" font-family="Metric-Regular, Metric">WI</text>
    <text transform="translate(169 58)" font-size="12" fill="#231f20" font-family="Metric-Regular, Metric">MI</text>
  </g>
  <g id="colleges">
    <g>
      <rect id="NE-1" x="107.9" y="102.6" width="5.4" height="5.37" fill="#fff"/>
      <rect id="NE-2" x="102.6" y="102.6" width="5.4" height="5.37" fill="#fff"/>
      <rect id="NE-3" x="97.2" y="102.6" width="5.4" height="5.37" fill="#fff"/>
      <rect id="ME-2" x="269.2" y="16.7" width="5.4" height="5.37" fill="#fff"/>
      <rect id="ME-1" x="263.8" y="16.7" width="5.4" height="5.37" fill="#fff"/>
      <path id="WY" d="M76.2,95.3H70.8V89.9h5.4Zm10.7-5.4H81.6v5.4h5.3Zm-5.3,0H76.2v5.4h5.4Z" transform="translate(-0.4 -3.4)" fill="#fff"/>
      <path id="WI" d="M156.8,79.1h-5.4V73.8h5.4Zm-5.4-5.3H146v5.3h5.4Zm0-5.4H146v5.4h5.4ZM146,73.8h-5.4v5.3H146Zm10.8,5.3h-5.4v5.4h5.4Zm0,5.4h-5.4v5.4h5.4Zm-5.4-5.4H146v5.4h5.4Zm-5.4,0h-5.4v5.4H146Zm0-10.7h-5.4v5.4H146Zm10.8,0h-5.4v5.4h5.4Z" transform="translate(-0.4 -3.4)" fill="#fff"/>
      <path id="WV" d="M205.1,132.8h-5.3v-5.3h5.3Zm-5.4-5.2h-5.4v5.3h5.4Zm10.8-5.5h-5.4v5.4h5.4Zm0,5.4h-5.4v5.3h5.4Zm5.4,0h-5.4v5.4h5.4Z" transform="translate(-0.4 -3.4)" fill="#fff"/>
      <path id="WA" d="M22.4,68.4H17.1V63h5.3ZM27.8,63H22.4v5.4h5.4Zm0-5.4H22.4V63h5.4Zm5.4,0H27.8V63h5.4Zm0,5.4H27.8v5.4h5.4Zm5.4,0H33.2v5.4h5.4Zm5.3,0H38.6v5.4h5.3ZM22.4,57.6H17.1V63h5.3Zm16.2,0H33.2V63h5.4Zm10.7,0H43.9V63h5.4Zm-5.4,0H38.6V63h5.3ZM49.3,63H43.9v5.4h5.4Z" transform="translate(-0.4 -3.4)" fill="#fff"/>
      <path id="VA" d="M226.7,143.6h-5.4v-5.4h5.4Zm5.3-5.4h-5.3v5.4H232Zm-16.3,0h-5.3v5.4h5.3Zm.2,5.4h-5.4V149h5.4Zm5.2-5.4h-5.4v5.3h5.4Zm.2,5.4h-5.4V149h5.4Zm-10.8,0h-5.3V149h5.3Zm16.2,0h-5.4V149h5.4Zm0-10.8h-5.4v5.4h5.4Zm5.3,10.8h-5.3V149H232Zm0-10.8h-5.3v5.4H232Zm5.4,10.8H232V149h5.4Zm-32.5.1h-5.4v5.4h5.4Z" transform="translate(-0.4 -3.4)" fill="#fff"/>
      <path id="VT" d="M248.2,30.8h-5.4V25.4h5.4Zm0-10.7h-5.4v5.3h5.4Zm0,10.7h-5.4v5.4h5.4Z" transform="translate(-0.4 -3.4)" fill="#fff"/>
      <path id="UT" d="M60.1,122.1H54.7v-5.3h5.4Zm0,5.4H54.7v5.4h5.4Zm5.3-5.4H60.1v5.4h5.3Zm5.4,5.4H65.4v5.4h5.4Zm-5.4,0H60.1v5.4h5.3Zm-5.3-5.4H54.7v5.4h5.4Z" transform="translate(-0.4 -3.4)" fill="#fff"/>
      <path id="TX" d="M108.4,170.5h-5.3v-5.4h5.3Zm-10.7-5.4H92.3v5.4h5.4Zm5.4,0H97.7v5.4h5.4Zm-16.2,5.4H81.6v5.4h5.3Zm10.8,0H92.3v5.4h5.4Zm5.4,0H97.7v5.4h5.4Zm5.3,0h-5.3v5.4h5.3ZM92.3,159.8H86.9v5.3h5.4Zm21.5,10.7h-5.4v5.4h5.4ZM97.7,159.8H92.3v5.3h5.4Zm21.5,10.7h-5.4v5.4h5.4ZM103.1,192H97.7v5.4h5.4Zm5.3,0h-5.3v5.4h5.3Zm5.4,0h-5.4v5.4h5.4ZM86.9,175.9H81.6v5.4h5.3Zm21.5,21.5h-5.3v5.4h5.3Zm-5.3,0H97.7v5.4h5.4Zm5.3,5.3h-5.3v5.4h5.3ZM81.6,175.9H76.2v5.4h5.4Zm10.7-10.8H86.9v5.4h5.4Zm5.4,10.8H92.3v5.4h5.4Zm5.4,0H97.7v5.4h5.4Zm5.3,0h-5.3v5.4h5.3Zm5.4,0h-5.4v5.4h5.4Zm5.4,0h-5.4v5.4h5.4ZM97.7,186.6H92.3V192h5.4Zm5.4,0H97.7V192h5.4Zm5.3,0h-5.3V192h5.3Zm5.4,0h-5.4V192h5.4Zm5.4,0h-5.4V192h5.4Zm-21.5-5.3H92.3v5.3h5.4Zm-5.4-10.8H86.9v5.4h5.4Zm0,5.4H86.9v5.4h5.4Zm0,5.4H86.9v5.3h5.4Zm10.8,0H97.7v5.3h5.4Zm5.3,0h-5.3v5.3h5.3Zm5.4,0h-5.4v5.3h5.4Zm5.4,0h-5.4v5.3h5.4Z" transform="translate(-0.4 -3.4)" fill="#fff"/>
      <path id="TN" d="M183.7,159.7h-5.4v-5.4h5.4Zm-10.8-5.4h-5.3v5.4h5.3Zm5.3,5.5h-5.4v5.3h5.4Zm-26.9,0H146v5.3h5.3Zm37.8-5.5h-5.4v5.4h5.4Zm-10.8,0h-5.4v5.4h5.4Zm-21.5,5.4h-5.4v5.4h5.4Zm5.4,0h-5.4v5.4h5.4Zm5.4-5.4h-5.4v5.4h5.4Zm0,5.4h-5.4v5.4h5.4Zm5.3,0h-5.3v5.4h5.3Z" transform="translate(-0.4 -3.4)" fill="#fff"/>
      <path id="SD" d="M103.1,84.5H97.7V79.1h5.4Zm5.3-5.4h-5.3v5.4h5.3Zm5.4,0h-5.4v5.4h5.4Z" transform="translate(-0.4 -3.4)" fill="#fff"/>
      <path id="SC" d="M237.3,181.1H232v-5.3h5.3Zm-16.1-16h-5.4v5.3h5.4ZM232,181.2h-5.4v5.4H232Zm-5.4-10.8h-5.4v5.4h5.4Zm5.4,0h-5.4v5.4H232Zm-5.4,5.4h-5.3v5.4h5.3Zm-5.4-5.3h-5.4v5.4h5.4Zm10.8,5.3h-5.4v5.4H232Zm-5.5,5.4h-5.4v5.4h5.4Z" transform="translate(-0.4 -3.4)" fill="#fff"/>
      <path id="RI" d="M275,63.1h-5.3V57.8H275Zm5.4.1H275v5.3h5.4Zm-5.4-.1h-5.3v5.4H275Zm5.4-5.3H275v5.4h5.4Z" transform="translate(-0.4 -3.4)" fill="#fff"/>
      <path id="PA" d="M215.9,95.2h-5.4V89.9h5.4Zm16.2-10.7h-5.4v5.4h5.4ZM215.9,95.2h-5.4v5.4h5.4Zm0-10.7h-5.3v5.4h5.3Zm5.4,5.4h-5.4v5.4h5.4Zm0,5.4h-5.4v5.4h5.4Zm0-10.8h-5.4v5.4h5.4Zm5.3,5.4h-5.3v5.4h5.3Zm0,5.4h-5.3v5.4h5.3Zm10.8-5.4H232v5.4h5.4Zm-5.4,0h-5.4v5.4H232Zm0,5.4h-5.4v5.4H232Zm10.8-10.8h-5.4v5.4h5.4Zm-5.4,10.8H232v5.4h5.4Zm10.9-5.5h-5.4v5.4h5.4Zm-10.9-5.3h-5.3v5.4h5.3Zm10.9,10.7h-5.4v5.4h5.4Zm-5.5,0h-5.3v5.4h5.3Zm0-5.3h-5.4v5.4h5.4Zm-16.1-5.4h-5.4v5.4h5.4Z" transform="translate(-0.4 -3.4)" fill="#fff"/>
      <path id="OR" d="M17.1,84.5H11.7V79.1h5.4Zm5.3-5.4H17.1v5.4h5.3Zm5.4,0H22.4v5.4h5.4ZM17.1,84.5H11.7v5.4h5.4Zm5.3,0H17.1v5.4h5.3Zm5.4,0H22.4v5.4h5.4Zm5.4-5.4H27.8v5.4h5.4Z" transform="translate(-0.4 -3.4)" fill="#fff"/>
      <path id="OK" d="M103,149H97.6v-5.4H103Zm5.4-5.4H103V149h5.4Zm5.4,0h-5.4V149h5.4ZM103,149H97.6v5.4H103Zm5.4,0H103v5.4h5.4Zm5.4,0h-5.4v5.4h5.4Zm-16.2-5.4H92.3V149h5.3Z" transform="translate(-0.4 -3.4)" fill="#fff"/>
      <path id="OH" d="M189,106h-5.4v-5.4H189Zm0,0h-5.4v5.4H189Zm0,5.4h-5.4v5.4H189Zm5.4-10.8H189V106h5.4Zm0,5.4H189v5.4h5.4Zm0,5.4H189v5.4h5.4Zm5.4-10.8h-5.4V106h5.4Zm0,5.4h-5.4v5.4h5.4Zm0,5.4h-5.4v5.4h5.4ZM189,116.8h-5.4v5.3H189Zm5.4,0H189v5.3h5.4Zm-5.4,5.3h-5.4v5.4H189ZM189,95h-5.4v5.4H189Zm10.8,21.8h-5.4v5.3h5.4Zm5.3-16.2h-5.3V106h5.3Zm0-5.3h-5.3v5.3h5.3Zm0,10.7h-5.3v5.4h5.3Zm0,5.4h-5.3v5.4h5.3Z" transform="translate(-0.4 -3.4)" fill="#fff"/>
      <path id="ND" d="M103.1,68.4H97.7V63h5.4Zm5.3-5.4h-5.3v5.4h5.3Zm5.4,0h-5.4v5.4h5.4Z" transform="translate(-0.4 -3.4)" fill="#fff"/>
      <path id="NC" d="M242.7,159.7h-5.4v-5.4h5.4Zm-5.4-5.4h-5.4v5.4h5.4Zm-10.5.1h-5.4v5.4h5.4Zm21.2-.1h-5.3v5.4H248Zm-5.3,5.4h-5.4v5.4h5.4Zm16.3,0h-5.3V165H259Zm-5.6-5.4H248v5.4h5.4Zm-5.3,5.4h-5.4v5.4h5.4Zm-5.4,5.4h-5.4v5.4h5.4Zm16.1-10.8h-5.4v5.4h5.4Zm-5.4,5.4h-5.3v5.4h5.3Zm-32-5.4H216v5.4h5.4Zm10.6.1h-5.4v5.4H232Zm5.4,5.3h-5.3v5.4h5.3Zm-5.3,0h-5.4v5.4h5.4Z" transform="translate(-0.4 -3.4)" fill="#fff"/>
      <path id="NY" d="M242.6,79h-5.3V73.7h5.3ZM215.9,57.7h-5.4V63h5.4Zm5.4-5.4h-5.4v5.4h5.4Zm0,5.4h-5.4V63h5.4Zm5.4-10.8h-5.4v5.4h5.4Zm0,5.4h-5.4v5.4h5.4Zm0,5.4h-5.4V63h5.4ZM232,46.9h-5.3v5.4H232Zm0,5.4h-5.3v5.4H232Zm0,5.4h-5.3V63H232ZM221.2,68.2h-5.3v5.4h5.3ZM232,41.5h-5.3v5.4H232Zm5.4,0H232v5.4h5.4Zm0,0H232v5.4h5.4Zm0,5.4H232v5.4h5.4Zm0-10.7H232v5.3h5.4Zm0,16.1H232v5.4h5.4Zm0,5.4H232V63h5.4ZM215.9,63h-5.4v5.4h5.4ZM248,73.7h-5.4v5.4H248Zm5.3,0h-5.4v5.4h5.4ZM221.3,63h-5.4v5.4h5.4Zm5.4,0h-5.4v5.4h5.4Zm5.3,0h-5.3v5.4H232Zm5.4,0H232v5.4h5.4Zm-10.7,5.4h-5.4v5.4h5.4Zm5.3,0h-5.3v5.4H232Zm5.4,0H232v5.4h5.4Zm0-37.6H232v5.4h5.4Zm0,43H232v5.4h5.4Z" transform="translate(-0.4 -3.4)" fill="#fff"/>
      <path id="NM" d="M70.8,165.1H65.4v-5.3h5.4Zm5.4-5.3H70.8v5.3h5.4Zm5.4,0H76.2v5.3h5.4Zm-10.8,5.3H65.4v5.4h5.4Zm5.4,0H70.8v5.4h5.4Z" transform="translate(-0.4 -3.4)" fill="#fff"/>
      <path id="NJ" d="M259,90h-5.4V84.6H259Zm0,0h-5.4v5.3H259Zm10.7-5.4h-5.3V90h5.3Zm-5.3,0H259V90h5.4Zm0,5.4H259v5.3h5.4Zm0,5.3H259v5.4h5.4Zm-5.4,0h-5.4v5.4H259Zm5.4,5.4H259v5.4h5.4Zm0,10.8H259v5.3h5.4ZM269.7,90h-5.3v5.3h5.3Zm0,5.3h-5.3v5.4h5.3Zm0,5.4h-5.3v5.4h5.3Zm-5.3,5.4H259v5.4h5.4Zm5.3,0h-5.3v5.4h5.3Z" transform="translate(-0.4 -3.4)" fill="#fff"/>
      <path id="NH" d="M258.9,36.2h-5.4V30.8h5.4Zm0-10.8h-5.4v5.4h5.4Zm0-5.4h-5.4v5.4h5.4Zm5.4,10.8h-5.4v5.4h5.4Z" transform="translate(-0.4 -3.4)" fill="#fff"/>
      <path id="NV" d="M38.6,106H33.2v-5.4h5.4Zm5.3-5.4H38.6V106h5.3Zm0,10.8H38.6v5.4h5.3Zm5.4,0H43.9v5.4h5.4ZM43.9,106H38.6v5.4h5.3Zm5.4,0H43.9v5.4h5.4Z" transform="translate(-0.4 -3.4)" fill="#fff"/>
      <path id="NE" d="M113.8,106h-5.4v-5.4h5.4Zm-5.4-5.4H103V106h5.4Z" transform="translate(-0.4 -3.4)" fill="#fff"/>
      <path id="MT" d="M70.8,68.4H65.4V63h5.4ZM81.6,63H76.2v5.4h5.4Zm-5.4,0H70.8v5.4h5.4Z" transform="translate(-0.4 -3.4)" fill="#fff"/>
      <path id="MO" d="M124.5,127.5h-5.4v-5.4h5.4Zm5.4-5.4h-5.4v5.4h5.4Zm5.4,0h-5.4v5.4h5.4Zm-10.8,5.4h-5.4v5.4h5.4Zm5.4,0h-5.4v5.4h5.4Zm5.4,0h-5.4v5.4h5.4Zm-10.8,5.4h-5.4v5.4h5.4Zm5.4,0h-5.4v5.4h5.4Zm5.4,0h-5.4v5.4h5.4Zm5.3,0h-5.3v5.4h5.3Z" transform="translate(-0.4 -3.4)" fill="#fff"/>
      <path id="MS" d="M151.4,186.5h-5.3v-5.3h5.3Zm10.7-10.7h-5.3v5.4h5.3Zm-5.3,5.4h-5.4v5.4h5.4Zm5.3,0h-5.3v5.4h5.3Zm-5.3,5.4h-5.4V192h5.4Zm5.3,0h-5.3V192h5.3Z" transform="translate(-0.4 -3.4)" fill="#fff"/>
      <path id="MN" d="M124.5,89.9h-5.4V84.5h5.4Zm5.4-5.4h-5.4v5.4h5.4Zm-5.4-5.4h-5.4v5.4h5.4Zm5.4,0h-5.4v5.4h5.4Zm-5.4-5.3h-5.4v5.3h5.4Zm5.4,0h-5.4v5.3h5.4Zm-5.4-5.4h-5.4v5.4h5.4Zm5.4,0h-5.4v5.4h5.4ZM124.5,63h-5.4v5.4h5.4Zm5.4,0h-5.4v5.4h5.4Z" transform="translate(-0.4 -3.4)" fill="#fff"/>
      <path id="MI" d="M172.9,79.1h-5.4V73.8h5.4Zm0,0h-5.4v5.4h5.4Zm0,5.4h-5.4v5.4h5.4Zm0-16.1h-5.4v5.4h5.4Zm5.4,5.4h-5.4v5.3h5.4Zm0,5.3h-5.4v5.4h5.4Zm0,5.4h-5.4v5.4h5.4Zm0-16.1h-5.4v5.4h5.4ZM172.9,63h-5.4v5.4h5.4Zm-5.4-5.4h-5.4V63h5.4Zm-5.4,0h-5.3V63h5.3ZM178.3,63h-5.4v5.4h5.4Zm5.3,10.8h-5.3v5.3h5.3Zm0,5.3h-5.3v5.4h5.3Zm0,5.4h-5.3v5.4h5.3Zm0-16.1h-5.3v5.4h5.3Z" transform="translate(-0.4 -3.4)" fill="#fff"/>
      <path id="MA" d="M253.5,47h-5.4V41.6h5.4Zm5.4-5.4h-5.4V47h5.4Zm5.4,0h-5.4V47h5.4Zm5.3,0h-5.3V47h5.3Zm5.4,0h-5.4V47H275Zm5.3,0H275V47h5.3ZM269.6,47h-5.3v5.4h5.3Zm-5.3,0h-5.4v5.4h5.4ZM275,47h-5.4v5.4H275Zm5.3,0H275v5.4h5.3Zm-32-5.3h-5.4V47h5.4Z" transform="translate(-0.4 -3.4)" fill="#fff"/>
      <path id="MD" d="M221.3,116.7h-5.4v-5.4h5.4Zm5.4-5.4h-5.4v5.4h5.4Zm5.3,0h-5.3v5.4H232Zm0,10.8h-5.4v5.3H232Zm-10.7-5.4h-5.4v5.4h5.4Zm5.4,0h-5.4v5.4h5.4Zm5.3,0h-5.3v5.4H232Zm-5.3,5.4h-5.4v5.4h5.4Zm10.7-5.4H232v5.4h5.4Zm0-5.3H232v5.4h5.4Z" transform="translate(-0.4 -3.4)" fill="#fff"/>
      <path id="ME" d="M275,20h-5.3V14.7H275Zm-5.3-5.3h-5.4V20h5.4Z" transform="translate(-0.4 -3.4)" fill="#fff"/>
      <path id="LA" d="M129.9,181.3h-5.4v-5.4h5.4Zm5.4-5.4h-5.4v5.4h5.4Zm-5.4,5.4h-5.4v5.3h5.4Zm5.4,0h-5.4v5.3h5.4Zm-5.4,5.3h-5.4V192h5.4Zm5.4,0h-5.4V192h5.4Zm5.3-5.3h-5.3v5.3h5.3Zm0,5.3h-5.3V192h5.3Z" transform="translate(-0.4 -3.4)" fill="#fff"/>
      <path id="KY" d="M172.8,143.6h-5.3v-5.3h5.3Zm10.9-10.7h-5.4v5.4h5.4Zm-5.5,5.4h-5.4v5.3h5.4Zm5.4,0h-5.4v5.3h5.4Zm-21.5,0h-5.4v5.3h5.4Zm-5.3,0h-5.4v5.3h5.4Zm10.7,0h-5.4v5.3h5.4Zm21.5,0h-5.4v5.3H189Z" transform="translate(-0.4 -3.4)" fill="#fff"/>
      <path id="KS" d="M103,127.5H97.6v-5.4H103Zm5.4-5.4H103v5.4h5.4Zm5.4,0h-5.4v5.4h5.4ZM103,127.5H97.6v5.4H103Zm5.4,0H103v5.4h5.4Zm5.4,0h-5.4v5.4h5.4Z" transform="translate(-0.4 -3.4)" fill="#fff"/>
      <path id="IA" d="M124.5,106h-5.4v-5.4h5.4Zm5.4-5.4h-5.4V106h5.4Zm5.4,0h-5.4V106h5.4ZM124.5,106h-5.4v5.4h5.4Zm5.4,0h-5.4v5.4h5.4Zm5.4,0h-5.4v5.4h5.4Z" transform="translate(-0.4 -3.4)" fill="#fff"/>
      <path id="IN" d="M172.9,106h-5.4v-5.4h5.4Zm5.4-5.4h-5.4V106h5.4Zm-5.4,5.4h-5.4v5.4h5.4Zm5.4,0h-5.4v5.4h5.4Zm-5.4,10.8h-5.4v5.3h5.4Zm5.4,0h-5.4v5.3h5.4Zm-5.4,5.3h-5.4v5.4h5.4Zm5.4,0h-5.4v5.4h5.4Zm-5.4,5.4h-5.4v5.4h5.4Zm0-16.1h-5.4v5.4h5.4Zm5.4,0h-5.4v5.4h5.4Z" transform="translate(-0.4 -3.4)" fill="#fff"/>
      <path id="IL" d="M151.4,106H146v-5.4h5.4Zm5.4-5.4h-5.4V106h5.4Zm5.3,0h-5.3V106h5.3ZM151.4,106H146v5.4h5.4Zm5.4,0h-5.4v5.4h5.4Zm5.3,0h-5.3v5.4h5.3Zm-10.7,10.8H146v5.3h5.4Zm5.4,0h-5.4v5.3h5.4Zm5.3,0h-5.3v5.3h5.3Zm-10.7,5.3H146v5.4h5.4Zm5.4,0h-5.4v5.4h5.4Zm5.3,0h-5.3v5.4h5.3Zm-5.3,5.4h-5.4v5.4h5.4Zm5.3,0h-5.3v5.4h5.3Zm-10.7-16.1H146v5.4h5.4ZM146,106h-5.4v5.4H146Zm0,10.8h-5.4v5.3H146Zm0-5.4h-5.4v5.4H146Zm10.8,0h-5.4v5.4h5.4Zm5.3,0h-5.3v5.4h5.3Z" transform="translate(-0.4 -3.4)" fill="#fff"/>
      <path id="ID" d="M54.7,89.9H49.3V84.5h5.4Zm0,0H49.3v5.4h5.4Zm5.4,0H54.7v5.4h5.4ZM54.7,79.1H49.3v5.4h5.4Z" transform="translate(-0.4 -3.4)" fill="#fff"/>
      <path id="HI" d="M65.4,229.6H60v-5.3h5.4ZM60,213.5H54.6v5.4H60Zm5.4,5.4H60v5.4h5.4ZM54.6,208.1H49.3v5.4h5.3Z" transform="translate(-0.4 -3.4)" fill="#fff"/>
      <path id="GA" d="M194.4,175.9H189v-5.3h5.4Zm0,0H189v5.4h5.4Zm5.2,10.8h-5.4v5.4h5.4Zm.2-16.1h-5.4v5.3h5.4Zm0,5.3h-5.4v5.4h5.4Zm5.3-5.3h-5.3v5.3h5.3Zm0,5.3h-5.3v5.4h5.3Zm10.8,10.8h-5.3v5.4h5.3Zm-5.4-10.8h-5.4v5.4h5.4Zm-16.1,5.4H189v5.4h5.4Zm0,5.4H189v5.4h5.4Zm5.4-5.4h-5.4v5.4h5.4Zm5.3,0h-5.3v5.4h5.3Zm5.4,0h-5.4v5.4h5.4Zm0,5.5h-5.4v5.4h5.4Zm-5.5-.1h-5.3v5.4H205Z" transform="translate(-0.4 -3.4)" fill="#fff"/>
      <path id="FL" d="M194.4,202.8H189v-5.4h5.4Zm-5.4-5.4h-5.4v5.4H189Zm10.8,0h-5.4v5.4h5.4Zm0,5.4h-5.4v5.4h5.4Zm0,21.5h-5.4v5.4h5.4Zm-16-26.9h-5.4v5.4h5.4Zm21.3,5.4h-5.3v5.4h5.3Zm0,5.4h-5.3v5.4h5.3Zm5.4-5.4h-5.4v5.4h5.4Zm0,5.4h-5.4v5.4h5.4Zm-16.1-5.4H189v5.4h5.4Zm21.5,5.4h-5.4v5.4h5.4Zm-16.1,5.4h-5.4v5.3h5.4Zm5.3,0h-5.3v5.3h5.3Zm5.4,0h-5.4v5.3h5.4Zm5.4,0h-5.4v5.3h5.4Zm-10.8,5.3h-5.3v5.4h5.3Zm5.4,0h-5.4v5.4h5.4Zm5.4,0h-5.4v5.4h5.4Zm-10.8,5.4h-5.3v5.4h5.3Zm5.4,0h-5.4v5.4h5.4Zm5.4,0h-5.4v5.4h5.4Zm-5.4,5.4h-5.4v5.4h5.4Zm5.4,0h-5.4v5.4h5.4Zm5.4-5.4h-5.4v5.4h5.4Zm-5.4,10.8h-5.4v5.3h5.4Zm-10.8-5.4h-5.3v5.4h5.3Zm-5.3-10.8h-5.4v5.4h5.4Zm21.5,0h-5.4v5.4h5.4Z" transform="translate(-0.4 -3.4)" fill="#fff"/>
      <path id="DC" d="M248.2,138.2h-5.4v-5.4h5.4Zm0-10.7h-5.4v5.3h5.4Zm5.3,5.3h-5.3v5.4h5.3Z" transform="translate(-0.4 -3.4)" fill="#fff"/>
      <path id="DE" d="M253.5,122.1h-5.4v-5.4h5.4Zm0-10.8h-5.4v5.4h5.4Zm0-5.4h-5.4v5.3h5.4Z" transform="translate(-0.4 -3.4)" fill="#fff"/>
      <path id="CT" d="M248.2,63.1h-5.4V57.7h5.4Zm5.3-5.4h-5.3v5.4h5.3Zm5.4,0h-5.4v5.4h5.4Zm-10.7,5.4h-5.4v5.4h5.4Zm5.3,0h-5.3v5.4h5.3Zm5.4,0h-5.4v5.4h5.4Zm5.4,0h-5.4v5.4h5.4Z" transform="translate(-0.4 -3.4)" fill="#fff"/>
      <path id="CO" d="M81.6,122.1H76.2v-5.3h5.4Zm5.3-5.3H81.6v5.3h5.3Zm5.4,0H86.9v5.3h5.4Zm-10.7,5.3H76.2v5.4h5.4Zm5.3,0H81.6v5.4h5.3Zm5.4,0H86.9v5.4h5.4Zm-10.7,5.4H76.2v5.4h5.4Zm5.3,0H81.6v5.4h5.3Zm5.4,0H86.9v5.4h5.4Z" transform="translate(-0.4 -3.4)" fill="#fff"/>
      <path id="CA" d="M27.8,149H22.4v-5.4h5.4Zm5.4-5.4H27.8V149h5.4Zm5.4,0H33.2V149h5.4ZM27.8,154.4H22.4v5.4h5.4Zm5.4,0H27.8v5.4h5.4Zm5.4,0H33.2v5.4h5.4ZM27.8,149H22.4v5.4h5.4Zm-5.4-5.4H17.1V149h5.3Zm5.4-5.3H22.4v5.3h5.4Zm5.4,0H27.8v5.3h5.4Zm5.4,0H33.2v5.3h5.4Zm-16.2,0H17.1v5.3h5.3Zm5.4-5.4H22.4v5.4h5.4Zm5.4,0H27.8v5.4h5.4Zm5.4,0H33.2v5.4h5.4Zm-16.2,0H17.1v5.4h5.3Zm-5.3,5.4H11.7v5.3h5.4Zm0-5.4H11.7v5.4h5.4ZM33.2,149H27.8v5.4h5.4Zm5.4,0H33.2v5.4h5.4ZM17.1,116.8H11.7v5.3h5.4Zm5.3,0H17.1v5.3h5.3Zm5.4,0H22.4v5.3h5.4Zm-5.4,10.7H17.1v5.4h5.3Zm5.4,0H22.4v5.4h5.4Zm5.4,0H27.8v5.4h5.4Zm-10.8-5.4H17.1v5.4h5.3Zm-10.7-5.3H6.3v5.3h5.4Zm0-5.4H6.3v5.4h5.4Zm5.4,0H11.7v5.4h5.4Zm5.3,0H17.1v5.4h5.3ZM6.3,122.1H.9v5.4H6.3ZM11.7,106H6.3v5.4h5.4Zm5.4,0H11.7v5.4h5.4Zm5.3,0H17.1v5.4h5.3ZM6.3,116.8H.9v5.3H6.3Zm5.4-16.2H6.3V106h5.4Zm5.4,0H11.7V106h5.4Zm5.3,0H17.1V106h5.3ZM6.3,111.4H.9v5.4H6.3Zm5.4-16.1H6.3v5.3h5.4Zm5.4,0H11.7v5.3h5.4Zm5.3,0H17.1v5.3h5.3ZM6.3,106H.9v5.4H6.3Zm21.5,0H22.4v5.4h5.4Zm0,5.4H22.4v5.4h5.4Zm5.4,5.4H27.8v5.3h5.4Zm5.4,43H33.2v5.3h5.4ZM11.7,122.1H6.3v5.4h5.4Zm0,5.4H6.3v5.4h5.4ZM6.3,100.6H.9V106H6.3Zm10.8,26.9H11.7v5.4h5.4Zm0-5.4H11.7v5.4h5.4Zm10.7,0H22.4v5.4h5.4Zm5.4,0H27.8v5.4h5.4Z" transform="translate(-0.4 -3.4)" fill="#fff"/>
      <path id="AR" d="M129.9,154.4h-5.4V149h5.4Zm-5.5-5.4h-5.3v5.4h5.4Zm5.5,5.4h-5.4v5.4h5.4Zm5.4,0h-5.4v5.4h5.4Zm-5.4,5.4h-5.4v5.3h5.4Zm5.4,0h-5.4v5.3h5.4Z" transform="translate(-0.4 -3.4)" fill="#fff"/>
      <path id="AZ" d="M49.3,154.4H43.9V149h5.4Zm5.4-5.4H49.3v5.4h5.4Zm5.4,0H54.7v5.4h5.4Zm-10.8,5.4H43.9v5.4h5.4Zm5.4,0H49.3v5.4h5.4Zm5.4,0H54.7v5.4h5.4Zm-10.8,5.4H43.9v5.3h5.4Zm5.4,0H49.3v5.3h5.4Zm5.4,0H54.7v5.3h5.4Zm-5.4,5.3H49.3v5.4h5.4Zm5.4,0H54.7v5.4h5.4Z" transform="translate(-0.4 -3.4)" fill="#fff"/>
      <path id="AK" d="M17,197.4H11.6V192H17Zm5.4-5.4H17v5.4h5.4Zm0,5.4H17v5.4h5.4Z" transform="translate(-0.4 -3.4)" fill="#fff"/>
      <path id="AL" d="M172.9,181.2h-5.4v-5.4h5.4Zm5.4-5.4h-5.4v5.4h5.4Zm5.3,0h-5.3v5.4h5.3Zm-10.7,5.4h-5.4v5.4h5.4Zm5.4,0h-5.4v5.4h5.4Zm5.3,0h-5.3v5.4h5.3Zm-10.7,5.4h-5.4V192h5.4Zm5.4,0h-5.4V192h5.4Zm5.3,0h-5.3V192h5.3Z" transform="translate(-0.4 -3.4)" fill="#fff"/>
    </g>
  </g>
</svg>
